<?xml version="1.0" encoding="UTF-8"?>
<svg fill="currentcolor" id="b" xmlns="http://www.w3.org/2000/svg" width="957" height="957" viewBox="0 0 957 957">
  <g id="c"><path d="m957,264v66h-32.7v33h32.7v132h-66.1c0-11.5,0-22.3,0-33.1,10.9,0,21.8,0,32.7,0v-32.6h-32.6v32.7h-33.2v66.2h-33v32.8h-33v33h-32.9c0-22,0-44.1,0-66.1,10.9,0,21.9,0,33,0v-33h33c0-33.4,0-66.2,0-99,21.9,0,43.8,0,65.7,0v-33.1h-32.7v-32.4h-65.6v32.7h32.8v33h-99.1c0-11.5,0-22.3,0-33.1,10.9,0,21.8,0,32.7,0v-32.6h-32.6v32.7h-66.2v-33h-65.9v-65.7h-33.1v32.7h-32.8v33h-66.2v33.1h-98.8c0,22.3,0,44.1,0,65.8-10.9,0-21.8,0-32.7,0v32.6h32.6v-32.7h33.2v-32.5h32.9v65.7h-33.2v66h.1c-21.9-.1-43.8-.1-66-.1v33.2h-165.2v66h-32.9c0-10.9,0-21.9,0-33h-33v-33.2h32.7v-32.8h-65.7c0-11,.1-22.1.2-33.1,0,0-.1.1-.1.1h99.3v32.5h65.5v-32.7h-32.6v-32.9h-.1c10.9.1,21.8.1,33,.1v-33.1c11,0,22.1,0,33.1,0,0,10.9,0,21.8,0,32.7h32.6v-32.6h-32.7c0-22,0-44.1,0-66.1h33.3v-33.1h32.8v-165h33v-32.9h-.1c10.9.1,21.8.1,33.2.1v-32.7h32.9c0,22.1,0,43.9,0,65.7-10.9,0-21.8,0-33.2,0v32.8h-32.5v65.8h32.3c0-22.2,0-44.1,0-66,11.1,0,22.2.1,33.3.2v66.3h33.1v32.4h32.7c0-22.1,0-43.9,0-65.7,10.9,0,21.8,0,32.7,0v-32.9c-11.1,0-21.9,0-32.7,0,0-11,0-22.1,0-33.1,10.9,0,21.8,0,33,0v-33c11.1,0,22.1,0,33.2,0v32.7h66.1v-65.6h32.9-.1v66.1h32.7v65.9c-11.1,0-21.9,0-32.7,0,0-10.9,0-21.8,0-32.7h-32.6v32.6h32.7v33.3h-32.8v32.4h66v-32.4h32.9v32.4h66v-32.3h99v32.4h32.9v-32.8h32.9Zm-593.6,33.2v32.6h32.3v-32.6h-32.3Zm230.2-66.4v-32.6h-32.3v32.6h32.3Z" style="stroke-width:0px;"/><path d="m561.1,725.9h-33v-66h-.1c10.9.1,21.8.1,33.1.1v-33.1h-.1c21.9.1,43.8.1,66.3.1v32.7h164.9v-32.8h33c0,65.9,0,131.8,0,197.7h33.1v-32.3h65.9v32.7c-10.9,0-21.9,0-33.3,0v33.1h-32.9v65.7h-33,.1v-65.6h-33.1v65.7h.1c-10.9-.1-21.8-.1-33.3-.1v-98.7h-32.9v65.9h-32.7v32.9h32.8v32.9h-66v-98.9h32.7v-33h-32.5v-66.2h-33.3.1v-33h-33.1.1v-32.6h-33.1v32.7h.1Zm230.6,65.9v-98.4h-98.4v98.4h98.4Z" style="stroke-width:0px;"/><path d="m231,0v231H0V0h231Zm-33.2,33.4H33.2v164.3h164.6V33.4Z" style="stroke-width:0px;"/><path d="m0,726h231v231H0v-231Zm197.6,197.8v-164.4H33.3v164.4h164.4Z" style="stroke-width:0px;"/><path d="m726,0h231v231h-231V0Zm197.8,33.3h-164.4v164.4h164.4V33.3Z" style="stroke-width:0px;"/><path d="m363.1,131.9h-65.9v32.8h-32.9v-98.5h32.7c0-11.5,0-22.4,0-33.3,10.9,0,21.8,0,33.1,0V0h33v32.7h33V0h132c0,11,0,22,0,33.1-21.9,0-43.8,0-66.2,0v33.2h-98.9v65.8h.1Z" style="stroke-width:0px;"/><path d="m0,264h131.9c0,11.2,0,22.1,0,33.1,0,0,.1-.1.1-.1h-33.3v66.3h-32.4v32.9h98.7-.1v32.9h33.1c0,11,0,22.1-.1,33.1h.1c-21.9-.1-43.8-.1-66.3-.1v-32.7h-32.9v32.7h-33,.1v-33.1h-33.3v-65.8H0v-33h65.6v-33H0v-33Z" style="stroke-width:0px;"/><path d="m957,726h-32.9v32.8h-32.9v-32.6h-32.9v-99.1h-33.3v-32.9h32.9v-32.7h33v65.4h32.9v66.2h33.3v33Z" style="stroke-width:0px;"/><path d="m264,957v-131.8h32.9v-32.9h32.8v65.7h33.3c0,10.9,0,21.8,0,33.2h-66.1v65.8h-33Z" style="stroke-width:0px;"/><path d="m527.9,858.1h32.7v65.7h-32.6v33.2h-33c0-22,0-44,0-66.1h-.1c10.9.1,21.8.1,33.1.1v-33.1h-.1Z" style="stroke-width:0px;"/><path d="m693,0v98.9c-11.2,0-22.2,0-33.1,0,0,0,.1.1.1.1V33.1h-33.1c0-11,0-22,0-33.1h66Z" style="stroke-width:0px;"/><path d="m924.1,891.1c0-22,0-44.1-.1-66.1,11,0,22,0,33.1,0v66c-11,0-22,0-33.1,0h.1Z" style="stroke-width:0px;"/><path d="m891,957v-65.9c11.2,0,22.2,0,33.1,0h-.1c0,21.9,0,43.9,0,65.9h-33Z" style="stroke-width:0px;"/><path d="m66.1,494.9c-22,0-44.1,0-66.1,0v-33c22,0,44.1,0,66.1,0,0,0-.1-.1-.1-.1v33.1h.1Z" style="stroke-width:0px;"/><path d="m0,594c11,0,22,0,33.1,0,0,10.8,0,21.6,0,33.1H0v-33Z" style="stroke-width:0px;"/><path d="m297,0c0,11,0,22,0,33.1-10.8,0-21.6,0-33.1,0V0h33Z" style="stroke-width:0px;"/><path d="m396.1,923.9c0,11,0,22,0,33.1h-33v-33.1h33.1Z" style="stroke-width:0px;"/><path d="m594,957v-32.7h33v32.7h-33Z" style="stroke-width:0px;"/><path d="m792,957c0-11,0-22.1,0-33.1h-.1c11,.1,22.1.1,33.1.1h-.1c0,10.9,0,21.9,0,32.9h-33Z" style="stroke-width:0px;"/><path d="m560.9,593.9c0,11,0,22.1,0,33.1h.1c-10.9-.1-21.8-.1-33.1-.1v33.1h.1c-10.8-.1-21.6-.1-32.9-.1v32.8h-65.7v-98.5h32.7c0-33.4,0-66.4,0-99.3,0,0-.1.1-.1.1h33.2v32.9h32.9v66.1h33-.1Z" style="stroke-width:0px;"/><path d="m230.9,627.1h32.9v-32.9h66.1v-33.2h33v66.1h.1c-21.8-.1-43.6-.1-65.7-.1v33h32.4v32.8h-32.7v33.3h-32.9v-66.2h-33.2.1c0-10.9,0-21.9,0-33h-.1Z" style="stroke-width:0px;"/><path d="m396.1,858.1h-33.1v-99.1h98.9v-32.7h32.9v32.6h33v32.9h-131.7v66.3Z" style="stroke-width:0px;"/><path d="m461.9,890.9v33.1h-66v-66.1c11,0,22.1,0,33.1.1h-.1v33h33.1-.1Z" style="stroke-width:0px;"/><path d="m363.1,759.1h-66.1v-33.1h66.1v33.1Z" style="stroke-width:0px;"/><path d="m428.9,461.9c11,0,22.1,0,33.1.1,0,0-.1-.1-.1-.1v33.1s.1-.1.1-.1c-10.8,0-21.6,0-33.1,0v-33Z" style="stroke-width:0px;"/><path d="m395.9,528.1h32.7v32.6h-32.6c0-10.9,0-21.8,0-32.7,0,0-.1.1-.1.1Z" style="stroke-width:0px;"/><path d="m362.9,627.1h32.7v32.6h-32.6c0-10.9,0-21.8,0-32.7,0,0-.1.1-.1.1Z" style="stroke-width:0px;"/><path d="m594.1,758.9h-33c0-11.2,0-22.1,0-33h-.1c11,.1,22.1.1,33.1.1h-.1v33h.1Z" style="stroke-width:0px;"/><path d="m626.9,758.9v33h-33,.1c0-10.9,0-21.9,0-33h-.1c11,.1,22.1.1,33.1.1h-.1Z" style="stroke-width:0px;"/><path d="m593.9,791.9v32.7h-32.6v-32.6c10.9,0,21.8,0,32.7,0,0,0-.1-.1-.1-.1Z" style="stroke-width:0px;"/><path d="m429.1,858.1v-32.7h32.9v32.7s.1-.1.1-.1h-33.1.1Z" style="stroke-width:0px;"/><path d="m495.1,858.1v-32.7h32.9c0,10.9,0,21.8,0,32.7h.1c-11-.1-22.1-.1-33.1-.1h.1Z" style="stroke-width:0px;"/><path d="m495.1,890.9c-11.1,0-22.1,0-33.2,0,0,0,.1.1.1.1v-33.1s-.1.1-.1.1c11.1,0,22.1,0,33.2,0,0,0-.1-.1-.1-.1v33.1h.1Z" style="stroke-width:0px;"/><path d="m98.9,626.9h33.1v65.7H33.3v-32.4h65.7v-33.3Z" style="stroke-width:0px;"/><path d="m230.9,659.9v32.7h-65.6v-32.6c22,0,43.8,0,65.7,0,0,0-.1-.1-.1-.1Z" style="stroke-width:0px;"/><path d="m66.1,527.9v66.1h-33.1c0-21.8,0-43.6,0-66.1h33.1Z" style="stroke-width:0px;"/><path d="m99.1,593.9v33.1h-33.1v-33.1h33.1Z" style="stroke-width:0px;"/><path d="m231.1,626.9h-32.7v-32.6h32.6c0,10.9,0,21.8,0,32.7,0,0,.1-.1.1-.1Z" style="stroke-width:0px;"/><path d="m264.1,363.1h-66c0,11.1,0,22.1,0,33-11,0-22.1,0-33.1-.1h.1v-66.1h-33v-32.9s-.1.1-.1.1c22,0,44.1,0,66.1,0h-.1v32.6h33.1v-32.7h-.1c11,.2,22.1.2,33.1.2h-.1c0,21.9.1,43.9.2,66Z" style="stroke-width:0px;"/><path d="m264.1,297.1v-32.7h32.6v32.6c-10.9,0-21.8,0-32.7,0,0,0,.1.1.1.1Z" style="stroke-width:0px;"/><path d="m198.1,297.1v-32.7h32.9c0,10.9,0,21.8,0,32.7,0,0,.1-.1.1-.1h-33.1.1Z" style="stroke-width:0px;"/><path d="m264.2,230.6v-32.4h32.4v32.4h-32.4Z" style="stroke-width:0px;"/><path d="m758.9,494.9c0,11,0,22.1.1,33.1h-32.9v32.8h-33.1v33.2h-32.9v-33.1h-66.2.1v-33.1h32.5v-32.8h-65.7v-33.1h-99s.1.1.1.1c0-21.8,0-43.6,0-65.7h32.9v32.4h65.8v-32.4h33.2v65.4h32.8v-32.7h33.3-.1v33h33.1-.1v33h66.1-.1Z" style="stroke-width:0px;"/><path d="m692.9,593.9h66.1v32.7h-66.1v-32.7Z" style="stroke-width:0px;"/><path d="m593.9,560.9v33c-11.2,0-22.1,0-33,0h.1v-32.9h33-.1Z" style="stroke-width:0px;"/><path d="m561.1,99.1h-33.1V32.9c33,0,66.1,0,99.1,0v32.9h-66v33.2Z" style="stroke-width:0px;"/><path d="m527.9,329.9h66.1v32.7h-66.1v-32.7Z" style="stroke-width:0px;"/><path d="m692.9,429.1h66c0,11.1,0,22.1,0,33,0,0,.1-.1.1-.1h-66.1.1v-33h-.1Z" style="stroke-width:0px;"/><path d="m792.1,495.1c-11,0-22.1,0-33.1-.1h.1v-33s-.1.1-.1.1c10.8,0,21.6,0,33.1,0v33Z" style="stroke-width:0px;"/><path d="m660.1,429.1v-32.7h32.9c0,10.9,0,21.8,0,32.7,0,0,.1-.1.1-.1h-33.1.1Z" style="stroke-width:0px;"/><path d="m528.1,98.9v33.1h-33v33h-33.1v-66.1h66.1Z" style="stroke-width:0px;"/><path d="m428.9,198.1v-33.1h33.1v33.1h-33.1Z" style="stroke-width:0px;"/><path d="m560.9,132.1v-33.1h32.7v33.1h-32.7Z" style="stroke-width:0px;"/><path d="m461.9,197.9h33.1v33.1h-33.1v-33.1Z" style="stroke-width:0px;"/><path d="m197.9,429.1v-33.1h33.1v33.1h-33.1Z" style="stroke-width:0px;"/><path d="m726.4,726.2h32.4v32.4h-32.4v-32.4Z" style="stroke-width:0px;"/><path d="m164.6,164.8h-98.4v-98.4h98.4v98.4Z" style="stroke-width:0px;"/><path d="m66.3,792.2h98.4v98.4h-98.4v-98.4Z" style="stroke-width:0px;"/><path d="m890.7,164.9h-98.3v-98.6h98.3v98.6Z" style="stroke-width:0px;"/><path d="m527.9,528.1v-33.1h33.1v33.1h-33.1Z" style="stroke-width:0px;"/></g>
</svg>