<?xml version="1.0" encoding="UTF-8"?>
<svg fill="currentcolor" id="b" xmlns="http://www.w3.org/2000/svg" width="956.5" height="956.5" viewBox="0 0 956.5 956.5">
  <g id="c"><path d="m395.7,494.7h0c0,.1,0,.1.1.1h-.1Z" style="stroke-width:0px;"/><path d="m857.7,857.7h0c0,.1,0,.1.1.1,0,0,0,0,0-.1h-.1Z" style="stroke-width:0px;"/><path d="m593.9,791.7h-.1c0,.1,0,.1.1.1h0Z" style="stroke-width:0px;"/><path d="m956.5,725.5v-32.9h-65.4v-99h32.7v-99h32.5v-66h-65.7v-32.7h-65.8v32.8h32.8v65.9h32.8v66h-32.4v-32.6h-33.1v-65.9h-33.1v-33h-65.7v32.6h32.4v65.9h33.1v33.2c-10.8,0-21.5,0-32.8,0v32.9h-32.8v66h-99.4v33.1c-10.8,0-21.5,0-33,0v-131.8h-32.8v32.6h-32.7v-65.5h32.5v-99.1h-33.1v-33h-32.7v66.1h32.5v33h-32.7v32.5h-99v-32.6h-33.1v-32.7h-65.7v32.6h32.7c0,11.2,0,22.2,0,33.2-10.9,0-21.8,0-32.7,0v66h-33v65.9h32.9v-33h33v-33.2h66.3v-32.4h32.9v32.7h66.1v33.1h65.5v33.1h-32.4v65.9h65.8v65.8h32.8v-32.6h32.9v65.5h-32.7v33.1h98.7v-32.6h66.3v32.6h65.9v-32.9h-32.6v-33.1h32.6v-65.5h32.9v32.5h33.1v-33.2h32.8Zm-594-165.2h-32.8v-32.3c10.9,0,21.7,0,32.8,0v32.3Zm296.9,165.1h-32.6c0-10.9,0-21.7,0-32.6h32.6v32.6Zm132.1,66.1h-98.4v-98.4h98.4v98.4Zm65.8-132.1h-98.3v-32.4h32.8c0-22.4,0-44.3,0-66.2h32.8v32.8h32.7v65.8Z" style="stroke-width:0px;"/><path d="m296.7,659.7h0c0,.1,0,.1.1.1,0,0,0,0,0-.1h-.1Z" style="stroke-width:0px;"/><path d="m494.7,395.8h.1c0-.1-.1,0-.1,0Z" style="stroke-width:0px;"/><path d="m824.9,395.8h0c0-.1,0-.1-.1-.1h0c0,.1,0,.1.1.1Z" style="stroke-width:0px;"/><path d="m593.7,560.7h0c0,.1,0,.1.1.1h-.1Z" style="stroke-width:0px;"/><path d="m461.4,329.5v-32.9h-65.6c0-10.9-.1-21.9-.2-32.8h-32.6v-66.1h32.6v-33h33v-33h66v-32.9h-33v-33h-32.9v32.7h-32.9v33.3h-33.1c0,10.9,0,21.8,0,33.2h-33.4v165h-32.8c0,32.8,0,65.7,0,98.5h98.8v-32.9h-32.3v-32.8c3.7,0,7.1,0,10.4,0,18.4,0,36.9-.2,55.3-.3,0-10.9,0-21.7,0-32.9h32.6Zm-65.7-.2h-32.6v-32.6c10.9,0,21.7,0,32.6,0v32.6Z" style="stroke-width:0px;"/><path d="m395.7,263.8h.1c0-.1,0-.1-.1-.1,0,0,0,0,0,.1Z" style="stroke-width:0px;"/><path d="m956.4.1h-230.4v230.4h230.4V.1Zm-32.9,197.2h-164.4V32.9h164.4v164.4Z" style="stroke-width:0px;"/><path d="m230.4,0H0v230.4h230.4V0Zm-33,197.4H33V33h164.4v164.4Z" style="stroke-width:0px;"/><path d="m0,956.4h230.4v-230.4H0v230.4Zm33-197.4h164.6v164.3H33v-164.3Z" style="stroke-width:0px;"/><path d="m659.7,230.8h.1c0-.1,0-.1-.1-.1h0Z" style="stroke-width:0px;"/><path d="m593.9,395.7s0,0-.1,0h0c0,.1,0,.1.1.1h0Z" style="stroke-width:0px;"/><path d="m659.9,329.8s0,0,0-.1h-.1c0,.1,0,.1.1.1Z" style="stroke-width:0px;"/><path d="m33.1,395.8h65.4v33H0v131.5h65.8v-65.6c32.9,0,65.7,0,98.5,0v-33.2h-32.6v-5.7c0-18.8,0-37.6,0-56.5,0-12.3-.2-24.5-.3-36.8-32.8,0-65.7,0-98.5,0v33.2Zm0,98.8v-32.6h32.6c0,10.9,0,21.7,0,32.6h-32.6Z" style="stroke-width:0px;"/><path d="m428.7,65.7h0c0,.1,0,.1.1.1h0c0-.1,0-.1-.1-.1Z" style="stroke-width:0px;"/><path d="m296.7,32.8h.1c0-.1-.1,0-.1,0Z" style="stroke-width:0px;"/><path d="m428.7,65.7v-33h33V.1h-66.1v32.3h-33.1V0h-32.9v32.8h-32.8v33.1h-32.8v98.5h32.9v-32.8h65.8v-66h66Z" style="stroke-width:0px;"/><path d="m362.7,131.7h0c0,.1,0,.1.1.1h0c0-.1,0-.1-.1-.1Z" style="stroke-width:0px;"/><path d="m791.7,857.8h.1c0-.1,0-.1-.1-.1h0Z" style="stroke-width:0px;"/><path d="m626.7,857.8h.1c0-.1,0-.1-.1-.1h0Z" style="stroke-width:0px;"/><path d="m758.9,890.7h-99v32.7h-33.2v-65.6h-32.9v98.5h165.1v-32.7h32.8v-65.8h-32.8v32.9Z" style="stroke-width:0px;"/><path d="m131.7,296.8h.1s0,0,0-.1h-.1Z" style="stroke-width:0px;"/><path d="m230.7,296.8h.1c0-.1-.1,0-.1,0Z" style="stroke-width:0px;"/><path d="m296.6,329.9v.2s0,0,.1-.1c0,0-.1.1-.1.1h.1v-.2s0,0-.1,0Z" style="stroke-width:0px;"/><path d="m131.6,362.6s-.1-.1-.1-.1c0,0,0,0,0,.1h.2s0,0,0-.1c0,0-.1,0-.2,0,0,0,0,0,.1,0Z" style="stroke-width:0px;"/><path d="m263.7,264v32.8h-32.8v32.6h-66.3v-32.6h-32.7c0,21.9-.1,43.8-.2,65.7,10.9,0,21.8,0,33.2,0v33.3h32.8c0,10.9,0,21.8,0,32.5h66.3v-98.5c11.1,0,21.8,0,32.6,0,0-22,0-44,0-65.8h-32.9Zm-33.2,131.7c-10.9,0-21.7,0-32.6,0v-32.6h32.6v32.6Z" style="stroke-width:0px;"/><path d="m494.6,890.6h-32.7c0-10.9,0-21.7,0-32.5h-66.4v65.8h-32.4v32.5h164.6v-32.6h-33.1v-33.2Zm-32.9,32.7h-32.6v-32.6c10.9,0,21.7,0,32.6,0v32.6Z" style="stroke-width:0px;"/><path d="m527.7,923.8h.1-.1c0,0,0,0,0,0Z" style="stroke-width:0px;"/><path d="m98.7,626.8h.1c0-.1-.1,0-.1,0Z" style="stroke-width:0px;"/><path d="m131.6,626.8h-32.8v65.6h131.5v-32.8h-65.3v-33h65.6v-32.8h-99.1v33Z" style="stroke-width:0px;"/><path d="m230.7,593.8h.1-.1c0,0,0,0,0,0Z" style="stroke-width:0px;"/><path d="m627,32.5h65.4V.1h-164.4v32.7h65.8v65.8h33.2V32.5Z" style="stroke-width:0px;"/><path d="m593.9,98.6h-.1.1c0,0,0,0,0,0Z" style="stroke-width:0px;"/><path d="m131.7,296.8s.1-.1.1-.1h-.1Z" style="stroke-width:0px;"/><path d="m0,264.1v65.4h98.9v-32.8h32.8c0-10.9,0-21.8,0-32.6H0Z" style="stroke-width:0px;"/><path d="m527.4,98.7v33.1h-32.6v32.9h66v-33.1h32.8v-32.8c-10.9,0-21.7,0-33.1,0v-33h-65.7v32.9h32.6Z" style="stroke-width:0px;"/><path d="m494.9,131.8h0c0-.1,0-.1-.1-.1h0c0,.1,0,.1.1.1Z" style="stroke-width:0px;"/><path d="m593.7,98.6h0c0,.1,0,.1.1.1,0,0-.1-.1-.1-.1Z" style="stroke-width:0px;"/><path d="m494.9,98.7h-.1c0,.1,0,.1.1.1h0Z" style="stroke-width:0px;"/><path d="m264,956.5h32.9v-98.9h65.5v-32.5h-98.4v131.4Z" style="stroke-width:0px;"/><path d="m494.8,758.6h-.1c0,.1.1,0,.1,0Z" style="stroke-width:0px;"/><path d="m395.9,758.8v33.1h33.1v32.5h33v-65.8h32.8v-65.6h-33.1v32.8h-32.7v33h-33Z" style="stroke-width:0px;"/><path d="m428.9,725.8h0c0-.1,0-.1-.1-.1h0c0,.1,0,.1.1.1Z" style="stroke-width:0px;"/><path d="m923.7,791.8h.1c0-.1,0-.1-.1-.1h0Z" style="stroke-width:0px;"/><path d="m857.9,824.7h33v33h33v33h32.6v-66.1h-32.8v-32.7h-65.9v32.9Z" style="stroke-width:0px;"/><path d="m857.9,824.7h-.1c0,.1,0,.1.1.1h0Z" style="stroke-width:0px;"/><path d="m857.9,791.8h0c0-.1,0-.1-.1-.1h0c0,.1,0,.1.1.1Z" style="stroke-width:0px;"/><path d="m296.9,659.8c0,10.9,0,21.9,0,32.8,21.9,0,43.9,0,65.8,0v-33h33v-32.9h-65.9v33h-33Z" style="stroke-width:0px;"/><path d="m329.9,626.8h0c0-.1,0-.1-.1-.1h0c0,.1,0,.1.1.1Z" style="stroke-width:0px;"/><path d="m296.9,692.8s0,0,0-.1h-.1.1Z" style="stroke-width:0px;"/><path d="m362.7,692.7h0c0,.1,0,.1.1.1,0,0,0,0,0-.1h-.1Z" style="stroke-width:0px;"/><path d="m362.9,758.8s0,0,0-.1c0,0,0,0-.1,0h.1Z" style="stroke-width:0px;"/><path d="m362.9,692.8c0,21.9,0,43.9,0,65.8,10.9,0,21.9,0,32.8,0v-33h33v-65.9c-11.3,0-22.1,0-32.9,0v33h-33Z" style="stroke-width:0px;"/><path d="m395.7,758.7h0c0,.1,0,.1.1.1h0c0-.1,0-.1-.1-.1Z" style="stroke-width:0px;"/><path d="m395.9,659.8h0c0-.1,0-.1-.1-.1h0c0,.1,0,.1.1.1Z" style="stroke-width:0px;"/><path d="m593.7,857.7h0c0,.1,0,.1.1.1h0c0-.1,0-.1-.1-.1Z" style="stroke-width:0px;"/><path d="m560.5,791.8v33.1h-65.4v32.7h98.6v-65.9c-10.9,0-21.8,0-33.2,0Z" style="stroke-width:0px;"/><path d="m296.8,494.7h0s0,0,0,0h-.1c0,.1,0,.1.1.1s0,0,0,0Z" style="stroke-width:0px;"/><path d="m296.7,527.7h0c0,.1,0,.1.1.1h0c0-.1,0-.1-.1-.1Z" style="stroke-width:0px;"/><path d="m296.7,494.8c-10.9,0-21.7,0-33.1,0v-32.7h-65.5v32.7h32.8v32.8h65.9v-32.9Z" style="stroke-width:0px;"/><path d="m494.7,395.8s.1-.1.1-.1h-.1Z" style="stroke-width:0px;"/><path d="m428.9,362.6s.1-.1.1-.1c0,0,0,0-.1,0,0,0,0,.1,0,.2h.1v-.2s0,0,0,.1Z" style="stroke-width:0px;"/><path d="m429,362.6c0,21.9,0,43.8,0,65.8h32.9v-32.8h32.8c0-10.9,0-21.7,0-33.1-22.3,0-44,0-65.7,0Z" style="stroke-width:0px;"/><path d="m494.7,164.8h.1c0-.1,0-.1-.1-.1h0Z" style="stroke-width:0px;"/><path d="m428.9,197.7h33.1v32.7h32.8v-65.5h-65.9v32.9Z" style="stroke-width:0px;"/><path d="m428.9,164.8h0c0-.1,0-.1-.1-.1h0c0,.1,0,.1.1.1Z" style="stroke-width:0px;"/><path d="m890.9,956.4h32.9v-65.6h-32.9v65.6Z" style="stroke-width:0px;"/><path d="m923.7,890.8h.1c0-.1,0-.1-.1-.1h0Z" style="stroke-width:0px;"/><path d="m461.5,462.1h-65.6v32.6c21.9,0,43.7,0,65.6,0v-32.6Z" style="stroke-width:0px;"/><path d="m395.7,494.7s.1.1.1.1h0c0-.1,0-.1-.1-.1Z" style="stroke-width:0px;"/><path d="m825.2,956.5h32.3v-65.8c-10.8,0-21.7,0-32.3,0v65.8Z" style="stroke-width:0px;"/><path d="m362.9,758.8s-.1-.1-.1-.1h0c0,.1,0,.1.1.1Z" style="stroke-width:0px;"/><path d="m297.1,791.4h65.6v-32.6c-21.9,0-43.7,0-65.6,0v32.6Z" style="stroke-width:0px;"/><path d="m395.9,263.7h32.9v-65.9h-32.9v65.9Z" style="stroke-width:0px;"/><path d="m428.7,197.8h.1c0-.1,0-.1-.1-.1h0Z" style="stroke-width:0px;"/><path d="m395.9,197.8h0c0-.1,0-.1-.1-.1h0c0,.1,0,.1.1.1Z" style="stroke-width:0px;"/><path d="m956.5,264.1h-32.6v65.5h32.6v-65.5Z" style="stroke-width:0px;"/><path d="m923.9,329.8h0c0-.1,0-.1-.1-.1h.1Z" style="stroke-width:0px;"/><path d="m923.8,362.6h-.1s0,0,0,.1h.1Z" style="stroke-width:0px;"/><path d="m923.7,329.6s0,0,0,.1h.1s-.1-.1-.1-.1Z" style="stroke-width:0px;"/><path d="m858.1,329.8v32.9h65.6c0-11,0-21.9,0-32.9-21.9,0-43.7,0-65.6,0Z" style="stroke-width:0px;"/><path d="m0,594v32.4h32.4v-32.4H0Z" style="stroke-width:0px;"/><path d="m98.7,626.8s.1-.1.1-.1h-.1Z" style="stroke-width:0px;"/><path d="m66.1,594.1v32.6h32.6c0-10.9,0-21.7,0-32.6h-32.6Z" style="stroke-width:0px;"/><path d="m230.8,593.8s0,0,0-.1c0,0,0,0-.1,0,0,0,.1.1.1.1Z" style="stroke-width:0px;"/><path d="m263.7,593.7h0c0,.1,0,.1.1.1h0c0-.1,0-.1-.1-.1Z" style="stroke-width:0px;"/><path d="m230.9,560.8c0,11,0,21.9,0,32.9,11,0,21.9,0,32.9,0v-32.9h-32.9Z" style="stroke-width:0px;"/><path d="m33,660.1v32.3h32.4v-32.3h-32.4Z" style="stroke-width:0px;"/><path d="m296.9,692.8s-.1-.1-.1-.1h0c0,.1,0,.1.1.1Z" style="stroke-width:0px;"/><path d="m264.1,725.4h32.6v-32.6c-10.9,0-21.7,0-32.6,0v32.6Z" style="stroke-width:0px;"/><path d="m956.4,395.4v-32.6h-32.6c0,10.9,0,21.7,0,32.6h32.6Z" style="stroke-width:0px;"/><path d="m923.8,362.6s-.1.1-.1.1h.1Z" style="stroke-width:0px;"/><path d="m230.7,296.8s.1-.1.1-.1h-.1Z" style="stroke-width:0px;"/><path d="m198.1,264.1v32.6h32.6c0-10.9,0-21.7,0-32.6h-32.6Z" style="stroke-width:0px;"/><path d="m692.4,230.7v-32.9h-32.6v32.9c10.9,0,21.7,0,32.6,0Z" style="stroke-width:0px;"/><path d="m659.9,197.8h0c0-.1,0-.1-.1-.1h0c0,.1,0,.1.1.1Z" style="stroke-width:0px;"/><path d="m593.7,395.8h-32.9v32.9h32.9v-32.9Z" style="stroke-width:0px;"/><path d="m560.9,428.7h-.1c0,.1,0,.1.1.1h0Z" style="stroke-width:0px;"/><path d="m527.4,791.4v-32.6h-32.6c0,10.9,0,21.7,0,32.6h32.6Z" style="stroke-width:0px;"/><path d="m494.8,758.6s-.1.1-.1.1h.1Z" style="stroke-width:0px;"/><path d="m198.1,527.8v32.9h32.6v-32.9c-10.9,0-21.7,0-32.6,0Z" style="stroke-width:0px;"/><path d="m230.7,560.7h0c0,.1,0,.1.1.1,0,0,0,0,0-.1h-.1Z" style="stroke-width:0px;"/><path d="m230.8,527.7h0s0,0,0,0h-.1c0,.1,0,.1.1.1s0,0,0,0Z" style="stroke-width:0px;"/><path d="m956.4,791.7v-32.9h-32.6v32.9c10.9,0,21.7,0,32.6,0Z" style="stroke-width:0px;"/><path d="m923.9,758.8h0c0-.1,0-.1-.1-.1h0c0,.1,0,.1.1.1Z" style="stroke-width:0px;"/><path d="m264.1,198.1v32.4h32.4v-32.4h-32.4Z" style="stroke-width:0px;"/><path d="m99.2,528.1v32.4h32.4v-32.4h-32.4Z" style="stroke-width:0px;"/><path d="m494.8,65.7h0c0,0,0,0,.1,0h0c0-.1,0-.1-.1-.1h0c0,.1,0,.1,0,0Z" style="stroke-width:0px;"/><path d="m494.7,65.7c0-10.9,0-21.8,0-32.9h-32.9v32.9h32.9Z" style="stroke-width:0px;"/><path d="m461.9,32.8h0c0-.1,0-.1-.1-.1h0c0,.1,0,.1.1.1Z" style="stroke-width:0px;"/><path d="m461.9,65.7h-.1c0,.1,0,.1.1.1h0Z" style="stroke-width:0px;"/><path d="m857.9,857.8c0,10.9-.1,21.8-.2,32.7,11,0,22,.1,33,.2v-32.9h-32.9Z" style="stroke-width:0px;"/><path d="m857.6,890.6s-.1-.1-.1-.1h0c0,.1.1.1.2.1h0c0-.1-.1-.1-.2-.1,0,0,0,0,.1.1Z" style="stroke-width:0px;"/><path d="m890.7,857.8h.1c0-.1,0-.1-.1-.1h0Z" style="stroke-width:0px;"/><path d="m890.7,890.7h0c0,.1,0,.1.1.1h0c0-.1,0-.1-.1-.1Z" style="stroke-width:0px;"/><path d="m527.8,923.8h0c0-.1,0-.1-.1-.1,0,0,.1.1.1.1Z" style="stroke-width:0px;"/><path d="m527.8,923.7c10.9,0,21.7,0,32.6,0v-32.6h-32.6v32.6Z" style="stroke-width:0px;"/><path d="m296.7,32.8s.1-.1.1-.1h-.1Z" style="stroke-width:0px;"/><path d="m264.1,0v32.6h32.6c0-10.9,0-21.7,0-32.6h-32.6Z" style="stroke-width:0px;"/><path d="m660,593.5h32.9v-33h32.6v-32.4h-131.7v32.6c21.9,0,43.8,0,66.2,0v32.8Z" style="stroke-width:0px;"/><path d="m593.7,560.7s.1.1.1.1h0c0-.1,0-.1-.1-.1Z" style="stroke-width:0px;"/><path d="m626.7,494.3h65.8v-32.7h-32.7v-65.8h32.8v-32.8h32.9v32.7h99.2c0-32.9,0-65.7,0-99.1h65.7v-32.6h-98.7v32.4h-66v-32.3h-33v65.8h-32.8c0,22,0,43.9-.1,65.9h-32.9v-66h32.9v-33.2h-65.6v-32.9h65.6v-32.8h-32.6v-33.1h32.6v-65.5h-33.1v32.7h-33v65.7h-32.9v-32.4h-33v65.7h-32.5v33.2h65.8v32.9h32.9v65.8c11,0,21.9,0,32.9.1v98.5Z" style="stroke-width:0px;"/><path d="m758.6,726.1h-32.6v32.3h32.6v-32.3Z" style="stroke-width:0px;"/><path d="m890.4,66.1h-98.4v98.4h98.4v-98.4Z" style="stroke-width:0px;"/><path d="m164.5,65.9h-98.4v98.4h98.4v-98.4Z" style="stroke-width:0px;"/><path d="m66.1,890.3h98.4v-98.4h-98.4v98.4Z" style="stroke-width:0px;"/></g>
</svg>