<?xml version="1.0" encoding="UTF-8"?>
<svg id="a" xmlns="http://www.w3.org/2000/svg" width="4in" height="5.07in" viewBox="0 0 288 365.4">
<path d="m192.6,63.9c.88,0,1.74.21,2.51.61.48.26.92.58,1.31.97l54,54c1.01,1.01,1.58,2.39,1.58,3.82v64.8c0,2.98-2.42,5.4-5.4,5.4H46.8v51.76l50.84,50.84h138.16c2.98,0,5.4,2.41,5.4,5.4s-2.42,5.4-5.4,5.4H95.4c-.88,0-1.74-.22-2.51-.62-.48-.25-.92-.57-1.31-.96l-54-54c-1.01-1.02-1.58-2.39-1.58-3.82v-124.2c0-1.43.57-2.81,1.58-3.82l54-54c.39-.39.83-.71,1.31-.96.77-.41,1.63-.62,2.51-.62h97.2M46.8,182.7h194.4v-57.17l-50.84-50.83h-92.72l-50.84,50.83v57.17M192.6,61.9h-97.2c-1.21,0-2.4.3-3.45.85-.65.34-1.26.78-1.78,1.31l-54,54c-1.38,1.38-2.17,3.28-2.17,5.23v124.2c0,1.96.77,3.82,2.16,5.23l54.01,54.01c.53.53,1.13.97,1.8,1.32,1.07.55,2.25.85,3.43.85h140.4c4.08,0,7.4-3.32,7.4-7.4s-3.32-7.4-7.4-7.4H98.47l-49.67-49.67v-48.93h197.8c4.08,0,7.4-3.32,7.4-7.4v-64.8c0-1.95-.79-3.86-2.17-5.23l-54-54c-.51-.51-1.11-.96-1.77-1.31-1.08-.56-2.27-.85-3.46-.85h0Zm-94.13,14.8h91.06l49.67,49.66v54.34H48.8v-54.34l49.67-49.66h0Z" style="stroke-width:0px;"/>
</svg>