<?xml version="1.0" encoding="UTF-8"?><svg id="a" xmlns="http://www.w3.org/2000/svg" width="4.5in" height="5.07in" viewBox="0 0 324 365.4"><path d="m198,18c1.43,0,2.81.57,3.82,1.58l54,54c2.5,2.5,2.04,6.85-1.4,8.66-.67.35-1.45.52-2.25.52-1.47,0-3-.56-3.97-1.53l-50.85-50.85c-1.01-1.01-2.39-1.58-3.82-1.58h-88.25c-1.43,0-2.81.57-3.82,1.58l-47.67,47.67c-1.01,1.01-1.58,2.39-1.58,3.82v201.65c0,1.43.57,2.81,1.58,3.82l47.67,47.67c1.01,1.01,2.39,1.58,3.82,1.58h88.25c1.43,0,2.81-.57,3.82-1.58l47.67-47.67c1.01-1.01,1.58-2.39,1.58-3.82v-103.53h-81c-3.54,0-6.28-3.4-5.14-7.12.69-2.22,2.8-3.68,5.12-3.68h129.62c3.54,0,6.28,3.4,5.14,7.12-.69,2.22-2.8,3.68-5.12,3.68h-37.82v108c0,1.43-.57,2.81-1.58,3.82l-54,54c-1.01,1.01-2.39,1.58-3.82,1.58h-97.2c-1.43,0-2.81-.57-3.82-1.58l-54-54c-1.01-1.01-1.58-2.39-1.58-3.82V77.4c0-1.43.57-2.81,1.58-3.82l54-54c1.01-1.01,2.39-1.58,3.82-1.58h97.2m0-2h-97.2c-1.98,0-3.83.77-5.23,2.17l-54,54c-1.4,1.4-2.17,3.26-2.17,5.23v210.6c0,1.98.77,3.83,2.17,5.23l54,54c1.4,1.4,3.26,2.17,5.23,2.17h97.2c1.98,0,3.83-.77,5.23-2.17l54-54c1.4-1.4,2.17-3.26,2.17-5.23v-106h35.82c3.21,0,6.1-2.09,7.03-5.09.72-2.34.33-4.78-1.09-6.7-1.39-1.89-3.62-3.01-5.96-3.01h-129.62c-3.21,0-6.1,2.09-7.03,5.09-.72,2.34-.33,4.78,1.09,6.7,1.39,1.89,3.62,3.01,5.96,3.01h79v101.53c0,.91-.35,1.76-1,2.4l-47.67,47.67c-.64.64-1.5,1-2.4,1h-88.25c-.91,0-1.76-.35-2.4-1l-47.67-47.67c-.64-.64-1-1.5-1-2.4V81.87c0-.91.35-1.76,1-2.4l47.67-47.67c.64-.64,1.5-1,2.4-1h88.25c.91,0,1.76.35,2.4,1l50.85,50.85c1.33,1.33,3.34,2.12,5.39,2.12,1.16,0,2.26-.26,3.18-.75,2.16-1.14,3.61-3.15,3.97-5.5.35-2.32-.43-4.69-2.08-6.34l-54-54c-1.4-1.4-3.26-2.17-5.23-2.17h0Z" style="stroke-width:0px;"/></svg>