<?xml version="1.0" encoding="UTF-8"?><svg id="a" xmlns="http://www.w3.org/2000/svg" width="4in" height="5.07in" viewBox="0 0 288 365.4"><path d="m192.6,63.9c.88,0,1.74.22,2.51.62.48.25.92.57,1.31.96l54,54c1.01,1.01,1.58,2.39,1.58,3.82v124.2c0,.88-.22,1.74-.62,2.51-.25.48-.57.92-.96,1.31l-54,54c-1.01,1.01-2.39,1.58-3.82,1.58h-97.2c-.88,0-1.74-.22-2.51-.62-.48-.25-.92-.57-1.31-.96l-54-54c-1.01-1.01-1.58-2.38-1.58-3.82v-124.2c0-.88.22-1.74.62-2.51.25-.48.57-.92.96-1.31l54-54c1.01-1.01,2.39-1.58,3.82-1.58h97.2m-94.96,232.2h92.72l50.84-50.83v-119.73l-50.84-50.84h-92.72l-50.84,50.84v119.73l50.84,50.83M192.6,61.9h-97.2c-1.94,0-3.85.79-5.23,2.16l-54,54c-.52.52-.97,1.13-1.32,1.79-.56,1.06-.85,2.25-.85,3.45v124.2c0,1.97.77,3.83,2.16,5.23l54,54c.53.53,1.14.98,1.8,1.32,1.06.55,2.24.84,3.44.84h97.2c1.98,0,3.84-.77,5.23-2.17l54-54c.53-.53.97-1.13,1.32-1.8.55-1.05.85-2.24.85-3.44v-124.2c0-1.97-.77-3.83-2.16-5.23l-54-54c-.52-.52-1.13-.97-1.79-1.32-1.06-.56-2.25-.85-3.45-.85h0Zm-94.13,14.8h91.07l49.67,49.67v118.07l-49.67,49.66h-91.07l-49.67-49.66v-118.07l49.67-49.67h0Z" style="stroke-width:0px;"/></svg>