<?xml version="1.0" encoding="UTF-8"?><svg id="a" xmlns="http://www.w3.org/2000/svg" width="4in" height="5.07in" viewBox="0 0 288 365.4"><path d="m208.8,63.9c1.43,0,2.81.57,3.82,1.58l54,54c2.11,2.11,2.11,5.53,0,7.64-1.05,1.05-2.44,1.58-3.82,1.58s-2.76-.53-3.82-1.58l-52.42-52.42h-71.13l-50.84,50.84v175.96c0,2.98-2.42,5.4-5.4,5.4s-5.4-2.42-5.4-5.4V125.54l-52.42-52.42c-2.11-2.11-2.11-5.53,0-7.64,1.05-1.05,2.44-1.58,3.82-1.58s2.76.53,3.82,1.58l49.64,49.64.54.54,50.18-50.18c.39-.39.83-.71,1.31-.96.77-.4,1.63-.62,2.51-.62h75.6m0-2h-75.6c-1.2,0-2.39.29-3.44.85-.66.34-1.26.79-1.79,1.31l-48.77,48.77-48.77-48.77c-1.4-1.4-3.26-2.17-5.23-2.17s-3.83.77-5.23,2.16c-2.89,2.89-2.89,7.58,0,10.47l51.83,51.83v175.13c0,4.08,3.32,7.4,7.4,7.4s7.4-3.32,7.4-7.4V126.37l49.66-49.67h69.47l51.83,51.83c1.4,1.4,3.26,2.17,5.23,2.17s3.84-.77,5.23-2.17c2.89-2.89,2.89-7.58,0-10.47l-54-54c-1.4-1.4-3.26-2.17-5.23-2.17h0Z" style="stroke-width:0px;"/></svg>