<?xml version="1.0" encoding="UTF-8"?><svg id="a" xmlns="http://www.w3.org/2000/svg" width="4in" height="6in" viewBox="0 0 288 432"><path d="m108.9,49.5c2.98,0,5.4,2.42,5.4,5.4v86.4h129.6c2.98,0,5.4,2.42,5.4,5.4s-2.42,5.4-5.4,5.4H114.3v159.76l50.84,50.84h78.76c2.98,0,5.4,2.42,5.4,5.4s-2.42,5.4-5.4,5.4h-81c-1.43,0-2.81-.57-3.82-1.58l-54-54c-.39-.39-.71-.83-.96-1.31-.4-.77-.62-1.63-.62-2.51v-162h-59.4c-2.98,0-5.4-2.42-5.4-5.4s2.42-5.4,5.4-5.4h59.4V54.9c0-2.98,2.42-5.4,5.4-5.4m0-2c-4.08,0-7.4,3.32-7.4,7.4v84.4h-57.4c-4.08,0-7.4,3.32-7.4,7.4s3.32,7.4,7.4,7.4h57.4v160c0,1.18.29,2.37.85,3.43.35.67.79,1.27,1.32,1.8l54,54c1.38,1.38,3.28,2.17,5.23,2.17h81c4.08,0,7.4-3.32,7.4-7.4s-3.32-7.4-7.4-7.4h-77.93l-49.67-49.67v-156.93h127.6c4.08,0,7.4-3.32,7.4-7.4s-3.32-7.4-7.4-7.4h-127.6V54.9c0-4.08-3.32-7.4-7.4-7.4h0Z" style="stroke-width:0px;"/></svg>