<?xml version="1.0" encoding="UTF-8"?><svg id="uuid-11be99e7-9b39-4189-a5f9-cc93613eb4b6" xmlns="http://www.w3.org/2000/svg" viewBox="0 0 288 365.4"><path d="m192.6,60.3c.29,0,.58,0,.86.05.14.01.27.02.4.04h.1l1.03.21.12.06s.07.02.1.03c.08.02.18.05.29.09.21.07.41.15.6.23.23.1.48.21.71.34l.53.27.08.08c.07.05.37.26.46.32l.2.09.5.46c.13.12.26.24.38.36l54,54c3.51,3.51,3.51,9.23,0,12.74-1.7,1.7-3.96,2.63-6.36,2.63s-4.67-.93-6.37-2.63l-51.36-51.37h-89.74l-48.73,48.73v116.74l48.73,48.73h136.67c4.96,0,9,4.04,9,9s-4.04,9-9,9H95.4c-.29,0-.59-.02-.86-.05-.14-.01-.28-.02-.41-.04h-.08l-.61-.13-.52-.1-.15-.08s-.09-.02-.13-.04c-.47-.15-.95-.35-1.41-.58-.51-.27-1-.59-1.5-.99l-.1-.08c-.21-.17-.41-.36-.6-.54l-54-54c-.19-.2-.37-.4-.55-.6l-.07-.09c-.38-.48-.69-.95-.95-1.44-.08-.15-.15-.29-.22-.44-.06-.14-.13-.29-.18-.43-.02-.02-.03-.05-.04-.08l-.45-.43v-1.15c-.04-.15-.06-.31-.08-.47l-.03-.24c-.04-.35-.06-.68-.06-1v-124.2c0-.32.02-.65.05-.96l.04-.32c.02-.14.04-.28.07-.42v-1.12l.45-.45s.03-.06.04-.09c.06-.15.13-.29.19-.44.07-.15.14-.29.22-.44.26-.48.58-.97.95-1.44l.07-.09c.18-.2.36-.4.55-.59l54-54.01c.2-.19.4-.38.61-.55l.08-.07c.5-.39,1.01-.73,1.52-.99.45-.23.92-.43,1.44-.6.04-.01.08-.02.12-.03l.05-.03h.05s.07-.05.07-.05l.65-.13.39-.09h.12c.13-.02.27-.03.4-.04.28-.04.58-.05.87-.05h97.2m0-3.5h-97.2c-.47,0-.87.02-1.24.07-.08,0-.16.01-.24.02h-.31l-.39.09-.34.08-.6.12-.56.11-.07.04-.09.02-.21.12c-.59.2-1.15.44-1.72.73-.68.34-1.38.8-2.08,1.35l-.08.06-.07.07-.04.03c-.29.24-.54.48-.76.68l-.03.03-.03.03-54,54.01c-.23.23-.46.48-.68.72l-.08.09-.08.1-.07.09c-.47.6-.9,1.25-1.26,1.92-.12.23-.22.42-.31.63h0s-1.01,1.01-1.01,1.01v2.26c-.01.08-.02.16-.03.23v.03s0,.03,0,.03l-.04.32v.05s-.01.05-.01.05c-.04.45-.07.89-.07,1.3v124.2c0,.45.03.91.08,1.4l.03.28c.01.11.03.23.05.34v.88s.02,1.48.02,1.48l1.01.97c.09.19.18.36.28.55.36.67.78,1.32,1.29,1.96l.05.07.08.1.08.09c.2.22.4.45.62.67l.03.03.03.03,54,54,.03.03.03.03c.22.21.49.47.8.72l.12.09c.66.53,1.33.97,2.05,1.35l.04.02.04.02c.58.29,1.16.53,1.74.73l.34.18.52.1.48.09.58.12.36.08h.24c.1.01.2.02.3.03.4.04.8.06,1.18.06h140.4c6.89,0,12.5-5.61,12.5-12.5s-5.61-12.5-12.5-12.5H100.58l-46.68-46.68v-113.84l46.68-46.68h86.84l50.33,50.34c2.36,2.36,5.5,3.66,8.85,3.66s6.48-1.3,8.83-3.66c4.88-4.88,4.88-12.81,0-17.69l-54-54c-.15-.15-.32-.31-.48-.46l-.5-.46-.42-.38-.39-.17-.22-.22-.49-.25-.47-.24c-.34-.19-.66-.33-.96-.46-.23-.1-.52-.22-.85-.33-.09-.03-.17-.06-.26-.09l-.25-.13-.45-.09-1.03-.21-.35-.07h-.24c-.08,0-.17-.02-.25-.02-.48-.06-.92-.07-1.22-.07h0Z" style="stroke-width:0px;"/></svg>