<?xml version="1.0" encoding="UTF-8"?><svg id="uuid-ee9fa9b3-7e98-4305-8209-a2ba68528130" xmlns="http://www.w3.org/2000/svg" viewBox="0 0 288 365.4"><path d="m208.8,60.3c2.4,0,4.66.93,6.36,2.63l54,54c1.7,1.71,2.64,3.97,2.64,6.37s-.94,4.66-2.64,6.36c-1.7,1.7-3.96,2.64-6.36,2.64s-4.67-.94-6.36-2.64l-51.37-51.36h-68.14l-48.73,48.73v174.47c0,4.96-4.04,9-9,9s-9-4.04-9-9V127.03l-51.36-51.37c-1.7-1.7-2.64-3.96-2.64-6.36s.94-4.66,2.63-6.36c1.71-1.7,3.97-2.64,6.37-2.64s4.66.94,6.36,2.63l47.64,47.64,47.63-47.64c.65-.64,1.39-1.18,2.19-1.6,1.27-.67,2.72-1.03,4.18-1.03h75.6m0-3.5h-75.6c-2.02,0-4.03.5-5.81,1.43-1.1.58-2.12,1.32-3.01,2.2l-45.17,45.18-45.16-45.16c-2.37-2.36-5.51-3.66-8.83-3.66s-6.46,1.3-8.84,3.66c-2.37,2.38-3.66,5.52-3.66,8.84s1.3,6.47,3.67,8.83l50.33,50.34v173.02c0,6.89,5.61,12.5,12.5,12.5s12.5-5.61,12.5-12.5v-173.02l46.68-46.68h65.24l50.34,50.34c2.35,2.36,5.49,3.66,8.83,3.66s6.47-1.3,8.83-3.67c2.36-2.36,3.67-5.5,3.67-8.83s-1.3-6.46-3.66-8.84l-54.01-54.01c-2.36-2.36-5.49-3.66-8.83-3.66h0Z" style="stroke-width:0px;"/></svg>