<?xml version="1.0" encoding="UTF-8"?>
<svg fill="currentcolor" id="b" xmlns="http://www.w3.org/2000/svg" width="950" height="950" viewBox="0 0 950 950">
  <g id="c"><path d="m455.9,684.1s0,0,.1,0h0c0-.1-.1,0-.1,0Z" style="stroke-width:0px;"/><path d="m532.1,608.1h0c0-.1,0-.1-.1-.1h.1Z" style="stroke-width:0px;"/><path d="m455.9,265.9s0,0,0,.1h.1-.1Z" style="stroke-width:0px;"/><path d="m266,0H0v266h266V0Zm-38.2,227.7H38.4V38.4h189.4v189.4Z" style="stroke-width:0px;"/><path d="m684,0v266h266V0h-266Zm227.7,227.6h-189.4V38.2h189.4v189.4Z" style="stroke-width:0px;"/><path d="m0,950h266v-266H0v266Zm38.4-227.6h189.4v189.4H38.4v-189.4Z" style="stroke-width:0px;"/><path d="m151.9,341.9v-37.9H0v152c12.6,0,25.3,0,37.9,0v-114h114Z" style="stroke-width:0px;"/><path d="m37.9,455.9h0q0,.1,0,.1h0s0,0,.1,0h0c0-.1,0-.1-.1-.1Z" style="stroke-width:0px;"/><path d="m798.1,455.9h-.1c0,.1,0,.1.1.1h0Z" style="stroke-width:0px;"/><path d="m304,950h38v-151.6h-38v151.6Z" style="stroke-width:0px;"/><path d="m911.9,341.9h-37.9v-37.6h-114.1v37.6h-38v76c-25.3,0-50.6,0-75.9,0v-37.9h37.6v-75.9h-37.4v-152h-114v-38h75.3v-38.1h-37.5v-37.7h-38.1v37.4h-38V0h-38v37.9h-113.9c0-12.6,0-25.3,0-37.9h-38v38.1h37.9v38.2h-37.6v113.4h38v-37.9h75.9v-75.5h37.9v37.9h37.7v37.9h-37.4v38.1h75.7v75.9h37.8c0,12.5,0,25.1,0,38.2h-37.6v37.9h113.6v37.8h-37.6v38.1h37.6c0,25.3,0,50.6,0,75.8-12.4,0-24.8,0-37.8,0v-37.7h-75.9v-37.8h-38.1v75.8h-37.9c0-2.1-.3-4.2-.3-6.3,0-73.9,0-147.8,0-221.7h-37.8v-75.8h-37.9v189.7h-76.2c0-12.6-.1-25.2-.2-37.8-12.6,0-25.2,0-37.8,0,0,12.6-.1,25.2-.2,37.8-25.3,0-50.6,0-75.9.1v37.8c25.3,0,50.6,0,75.9.1v37.8h-37.6v37.9h37.4v38.2h-37.4v37.9h37.7v38.1h-114v-37.9h-75.9v75.6h190v-37.6h75.6v37.7h-37.3v38h37.5v76h37.8v114.2h76.1v38.1h-75.9v37.8h190v-113.7h-38.2v37.6h-75.7v-75.8h-37.8v-37.9h75.6v-38h37.9v75.4h38.1v-37.3h37.9v37.4h75.9v38.1h-37.2v76.3h75.5c0,12.6,0,25.3,0,37.9h228v-38h-75.7v-37.8h37.4v-38.2h38.3v-76h-75.9v37.7h-37.9v-37.6h-38v-113.9h37.5v75.7h114.2v-152c-12.6,0-25.3,0-37.9,0v-37.8c12.6,0,25.3,0,37.9,0v-76h-76.2v-37.6h-75.8v37.6h37.8v37.9h76.1c0,13,0,25.5,0,38.1h-75.6v38.1h75.6v37.6h-114v-151.6h-75.9v-38h38v-76h113.9v37.6h38.1v-37.6c12.6,0,25.3,0,37.9,0v-38h-38.1v37.9Zm-304.3-76c-12.5,0-25.1,0-37.6,0v-75.6h37.6v75.6Zm-303.7,152h-37.9v-37.9h37.9v37.9Zm76,152h-75.6v-37.9h75.6v37.9Zm227.7,151.7h-37.6c0-12.6,0-25.1,0-37.6h37.6v37.6Zm38.1-113.8h-37.5v37.9h-38.3v38.2c-37.9,0-75.9.1-113.8.2v37.6h-76v-151.6h37.6v-38.1h-37.6v-37.7c25.5,0,50.7,0,76,0v75.5h37.8v-37.3h38.2v75.5h37.8v-75.7h37.9v37.7h37.9v37.9Zm152.6,228.6h37.6v75.2h-37.6v-75.2Zm75.9-190.2h37.4v37.6h-37.4v-37.6Zm-228.2-152.2h37.7c0,12.8,0,25.4,0,38.1h-37.7c0-13,0-25.5,0-38.1Zm.2,265.6v-113.4h113.4v113.4h-113.4Zm113.4,152.3c-12.5,0-25.1,0-37.6,0v-113.6h37.6v113.6Zm0-379.7v37.5h-37.7v37.9h-38.2v-75.5c25.2,0,50.4,0,75.9,0Z" style="stroke-width:0px;"/><path d="m646,0h-38v37.7h38V0Z" style="stroke-width:0px;"/><path d="m190.1,380.1h0c0-.1-.1,0-.1,0,0,0,0,0,.1,0Z" style="stroke-width:0px;"/><path d="m341.8,228.3h-37.4v37.4h37.4v-37.4Z" style="stroke-width:0px;"/><path d="m265.9,342.1h.1s0,0,0-.1h-.1Z" style="stroke-width:0px;"/><path d="m303.9,341.9h0c0,.1,0,.1.1.1h-.1Z" style="stroke-width:0px;"/><path d="m190.1,379.9s0,0-.1,0h0c0,.1.1,0,.1,0Z" style="stroke-width:0px;"/><path d="m152.1,342.1h0c0-.1,0-.1-.1-.1h0c0,.1,0,.1.1.1Z" style="stroke-width:0px;"/><path d="m493.7,228.4h-37.6v37.6c12.5,0,25.1,0,37.6,0v-37.6Z" style="stroke-width:0px;"/><path d="m455.9,265.9s.1.1.1.1h0c0-.1,0-.1-.1-.1Z" style="stroke-width:0px;"/><path d="m303.9,341.9s.1.1.1.1h0c0-.1,0-.1-.1-.1Z" style="stroke-width:0px;"/><path d="m341.7,304.4h-37.6v37.6c12.5,0,25.1,0,37.6,0v-37.6Z" style="stroke-width:0px;"/><path d="m265.9,342.1s.1-.1.1-.1h-.1Z" style="stroke-width:0px;"/><path d="m228.4,304.3v37.6h37.6c0-12.5,0-25.1,0-37.6h-37.6Z" style="stroke-width:0px;"/><path d="m113.8,494.3v37.4h38.3v38.2h37.6v-76.1h-37.6v-37.7h37.9v-38c-12.6,0-25.2,0-37.9-.1v-37.9c12.6,0,25.2,0,37.9-.1v-37.9h-37.9c0,12.6,0,25.2-.1,37.9h-75.6v38.1h75.6c0,12.6,0,25.2,0,37.9-38,0-75.9,0-113.9.1v113.9c-12.8,0-25.4,0-38.1,0v38h38.1v-37.9c12.6,0,25.2,0,37.9-.1v-75.6h37.9Z" style="stroke-width:0px;"/><path d="m75.9,569.9h0c0,.1,0,.1.1.1h0c0-.1,0-.1-.1-.1Z" style="stroke-width:0px;"/><path d="m152.1,569.9h-.1c0,.1,0,.1.1.1h0Z" style="stroke-width:0px;"/><path d="m494.3,645.6h37.6v-37.6c-12.5,0-25.1,0-37.6,0v37.6Z" style="stroke-width:0px;"/><path d="m532.1,608.1s-.1-.1-.1-.1h0c0,.1,0,.1.1.1Z" style="stroke-width:0px;"/><path d="m418.4,646.3v37.6h37.6c0-12.5,0-25.1,0-37.6h-37.6Z" style="stroke-width:0px;"/><path d="m455.9,684.1s.1-.1.1-.1h-.1Z" style="stroke-width:0px;"/><path d="m189.9,418.1s0,0,.1,0h0c0-.1,0-.1-.1-.1h0Z" style="stroke-width:0px;"/><path d="m684.4,721.8h37.4v-37.6h-37.4v37.6Z" style="stroke-width:0px;"/><path d="m189.6,76.3h-113.4v113.4h113.4v-113.4Z" style="stroke-width:0px;"/><path d="m873.6,76.3h-113.4v113.4h113.4v-113.4Z" style="stroke-width:0px;"/><path d="m76.4,873.7h113.4v-113.4h-113.4v113.4Z" style="stroke-width:0px;"/></g>
</svg>