<?xml version="1.0" encoding="UTF-8"?><svg id="a" xmlns="http://www.w3.org/2000/svg" width="4in" height="5.07in" viewBox="0 0 288 365.4"><path d="m192.6,63.9c.18,0,.36.01.53.03.15,0,.29.03.43.06h.02c.09.02.19.04.29.06.02.01.04.01.06.02.09.02.19.05.28.08.04.01.08.02.12.04.11.03.22.07.32.12.15.06.31.13.46.21,0,0,.02,0,.03.02.16.08.31.17.45.27.14.09.27.19.4.29.02.01.03.02.05.03.13.12.26.23.38.35l54,54c2.11,2.11,2.11,5.53,0,7.64-1.05,1.05-2.44,1.58-3.82,1.58s-2.76-.53-3.82-1.58l-52.42-52.42h-92.72l-50.84,50.84v119.72l50.84,50.84h138.16c2.98,0,5.4,2.42,5.4,5.4s-2.42,5.4-5.4,5.4H95.4c-.18,0-.36-.01-.53-.03-.15-.01-.29-.03-.43-.06h-.02c-.09-.02-.19-.04-.29-.06-.02-.01-.04-.01-.06-.02-.09-.02-.19-.05-.28-.08-.31-.1-.61-.22-.9-.37-.33-.17-.64-.38-.93-.61-.13-.11-.26-.23-.38-.35l-54-54c-.12-.12-.24-.25-.35-.38-.23-.29-.44-.6-.61-.93-.03-.05-.06-.11-.08-.17-.06-.12-.12-.24-.16-.36-.03-.06-.05-.11-.06-.17-.07-.16-.12-.33-.15-.49,0-.01,0-.03,0-.04-.05-.16-.08-.33-.1-.49-.01-.07-.02-.15-.03-.23-.02-.18-.03-.37-.03-.56v-124.2c0-.19,0-.38.03-.56,0-.08.02-.16.03-.23.02-.16.05-.33.1-.49,0,0,0-.03,0-.04.03-.16.08-.33.15-.49.01-.06.03-.11.06-.17.04-.12.1-.24.16-.36.02-.06.05-.12.08-.17.17-.33.38-.64.61-.93.11-.13.23-.26.35-.38l54-54c.12-.12.25-.24.38-.35.29-.23.6-.44.93-.61.29-.15.59-.27.9-.37.09-.03.19-.06.28-.08.02,0,.04,0,.06-.02.1-.02.2-.04.29-.06h.02c.14-.03.28-.05.43-.06.17-.02.35-.03.53-.03h97.2m0-2h-97.2c-.24,0-.48.01-.71.04-.15.01-.29.03-.43.05h-.03l-.23.05c-.08.02-.16.03-.24.05l-.26.05-.07.03c-.09.02-.17.05-.25.08-.42.13-.81.3-1.19.49-.42.22-.83.49-1.25.82l-.03.02-.02.02c-.17.15-.34.3-.5.46l-54,54c-.16.16-.32.33-.46.5l-.02.02-.02.02c-.32.4-.58.8-.8,1.21-.06.11-.11.22-.16.33-.06.11-.12.25-.18.4-.04.09-.08.19-.11.31,0,.02-.02.05-.03.07l-.22.22v.59c-.04.16-.07.33-.09.51l-.03.23c-.03.28-.05.54-.05.81v124.2c0,.27.01.53.04.78l.04.29c.02.16.05.31.08.46v.57l.22.23s.03.07.04.1c.04.12.08.22.11.31.06.15.12.29.18.4.05.11.1.22.16.33.21.41.48.81.8,1.21l.02.02.02.02c.15.17.3.34.46.5l54,54c.16.16.33.32.5.46l.02.02.03.02c.41.33.84.6,1.26.82.37.19.77.35,1.2.5.06.02.12.04.18.06h.01s.04.02.04.02l.06.03.26.05c.09.02.17.03.25.05l.21.05h.05c.14.02.28.04.43.05.23.03.47.04.71.04h140.4c4.08,0,7.4-3.32,7.4-7.4s-3.32-7.4-7.4-7.4H98.47l-49.67-49.67v-118.06l49.67-49.67h91.06l51.83,51.83c1.4,1.4,3.26,2.17,5.23,2.17s3.84-.77,5.23-2.17,2.17-3.26,2.17-5.23-.77-3.84-2.17-5.23l-54-54c-.1-.1-.21-.2-.32-.3l-.11-.1-.21-.19-.12-.06c-.12-.09-.23-.17-.36-.25-.12-.08-.24-.16-.36-.23l-.03-.03-.2-.1-.07-.04c-.18-.1-.37-.19-.59-.28-.15-.07-.31-.13-.47-.18-.09-.03-.16-.05-.22-.07-.04-.01-.09-.03-.13-.04h-.01s-.04-.02-.04-.02l-.06-.03-.26-.05c-.09-.02-.17-.03-.25-.05l-.21-.05h-.05c-.14-.02-.29-.04-.43-.05-.23-.03-.47-.04-.71-.04h0Z" style="stroke-width:0px;"/></svg>