<?xml version="1.0" encoding="UTF-8"?><svg id="uuid-c8992cce-3eba-47ee-a9c6-42eaa2a4c968" xmlns="http://www.w3.org/2000/svg" viewBox="0 0 288 365.4"><path d="m192.6,60.3c1.45,0,2.89.35,4.17,1.02.85.45,1.57.99,2.19,1.61l54.01,54c1.67,1.68,2.63,4,2.63,6.37v64.8c0,4.96-4.04,9-9,9H50.4v46.67l48.73,48.73h136.67c4.96,0,9,4.04,9,9s-4.04,9-9,9H95.4c-1.44,0-2.88-.36-4.17-1.03-.82-.42-1.56-.96-2.2-1.61l-54-53.99c-1.7-1.72-2.63-3.98-2.63-6.37v-124.2c0-2.37.96-4.69,2.64-6.37l53.99-54c.65-.64,1.39-1.18,2.2-1.6,1.25-.67,2.7-1.03,4.17-1.03h97.2M50.4,179.1h187.2v-52.08l-48.73-48.72h-89.74l-48.73,48.72v52.08M192.6,56.8h-97.2c-2.05,0-4.06.5-5.82,1.45-1.07.56-2.1,1.3-3,2.19l-54.01,54.02c-2.33,2.33-3.66,5.55-3.66,8.84v124.2c0,3.32,1.29,6.46,3.64,8.83l54.01,54c.88.89,1.92,1.66,3.08,2.25,1.78.92,3.78,1.41,5.77,1.41h140.4c6.89,0,12.5-5.61,12.5-12.5s-5.61-12.5-12.5-12.5H100.58l-46.68-46.68v-41.72h192.7c6.89,0,12.5-5.61,12.5-12.5v-64.8c0-3.28-1.33-6.51-3.65-8.84l-54.02-54.01c-.88-.88-1.9-1.63-3.03-2.23-1.79-.94-3.79-1.43-5.81-1.43h0Zm-92.02,25h86.84l46.68,46.67v47.13H53.9v-47.13l46.68-46.67h0Z" style="stroke-width:0px;"/></svg>