<?xml version="1.0" encoding="UTF-8"?>
<svg fill="currentcolor" id="b" xmlns="http://www.w3.org/2000/svg" width="957" height="957" viewBox="0 0 957 957">
  <g id="c"><path d="m890.8,759.2v-33.2h66.2v-66h-32.9v-33.1h-33.1v-98.8h32.6v-33.1h-32.6v-33h-66c0-10.9,0-21.8,0-32.7-11,0-21.9,0-33.2,0v32.7h-32.8v-32.8h-131.9v-32.8h-66.1v32.4h-33.2v33.2h-32.9v-66.1h33v-65.8h132.1v32.8h98.8v-33.1h66v-32.7h-33.1v-32.7h-33v32.3h-33v-32.6h-32.8v-.2h-.1v-98.9h-32.9v98.9h-.1c0,.1-32.8.1-32.8.1v32.6h-33v-32.5h-32.8v-66.3h32.6v-33h66v-66.1h32.7v-32.8h-65.5v65.5h-32.9v-32.7h-33.1v-32.9c21.9,0,43.9,0,65.8-.1v-33.1h66.1V0h-99v33.1h-32.9c0,10.9,0,21.9-.2,32.8h-32.9c0-11,0-21.9-.1-32.8h-164.8v32.5h-33.1V0h-33v33.3h-32.7v32.9h32.3v33h-32.2v32.7h65.6v-32.6h33.1v32.6h32.9v-65.6h65.8v32.4h-32.7v33.2h33v33h32.9v-98.8h33v33h33v66h-65.8c0,11,0,21.9-.2,32.9h-32.8c0-11,0-21.9-.1-32.9h-32.9c0,11,0,21.9,0,32.9,11,0,21.9,0,32.9.1v33h33v32.6h-66v-65.6h-32.6v99.1h131.6v32.7h-33.1v33.2h-32.8v33h-33v32.8h-32.9v-66.2h32.7v-32.5h-65.9v32.4h-32.5v-65.9h32.4v-32.5h-164.4v33h65.8v32.9h32.4v65.6h-32.7v-32.6h-32.8v33h-66v32.9h99v33c11,0,21.9,0,32.9,0v-33h33v-32.6h33.1v32.6c10.9,0,21.9.1,32.9.2v32.6h33.1v-32.6h33.1v33h32.8v32.6h33.1v-32.6h32.8v32.6h32.9v-32.4h131.9v32.5h-32.6v32.9h0c-11,.1-22,.2-33,.4v32.8h-66v-32.6h-66.1v65.6h-33.2v65.7h-98.5v-32.7h32.6v-32.8h-66.1v-32.8h-32.5v65.9h32.5v32.9h-32.9v99h-32.8v33.1h-33.1v164.8h33v-131.9h33v-32.9h32.8v65.8h66.1v32.8h-66v33h-32.9v33.1h33c0-11,0-22,0-32.9h65.8c0,11,0,22,0,32.9h99v-65.9h65.9v32.8h-32.9v33.1h33c0-11,0-22,0-32.9h32.9c0,11,0,22,0,32.9h33c0-11,0-22,0-32.9h32.9c0,11,0,22,0,32.9h33v-33.1h-32.9v-32.6h-33.1v32.6c-10.9,0-21.9,0-32.9,0v-33h-33v-32.8h65.9v-33.1h-65.7v-33h-33.1v32.8h-33v33h-32.8v33.1h-33.1v-33h-33v-32.7h65.8v-33.3h66.1c0-11,0-21.9.1-32.9h33.1v-33h32.8v65.7h33.2v33.1h98.6v33h-32.4v32.9h32.7v66.2h132c0-11,0-22,0-32.9h32.7v-66.1h33.2v-66h-33v32.8h-32.9v-32.5h-32.9v32.6h-33.2v-65.7h65.7ZM527.6,230.9h-32.6v-32.9h32.6v32.9Zm-98.6,660.1h32.9v32.9h-32.9v-32.9Zm98.9-165.2h-32.8v32.9h-32.9v32.8h-66.1v-32.5h-32.8v-65.9h32.5v32.5h65.9v-32.6h66.2v32.8Zm33,33h-32.9v-32.9h32.9v32.9Zm0-66h-32.9v-32.9h32.9v32.9Zm98.7,33h-32.6v-33.1h-33v-32.8h65.6v65.9Zm0-99.2h-65.8v33.2h-32.8v-32.8h-33v-33.1h33.1v-33h32.8v32.8h65.8v32.9Zm33.5-98.9h0s65.5,0,65.5,0v33h-32.6v32.9h-32.9c0-21.9,0-43.8,0-65.8Zm65.4,66v33h-32.6c0-11,0-22,.2-33h0s32.4,0,32.4,0Zm-32.7,33.2v32.6h-32.6v-32.6h32.6Zm65.8,164.6h-98.6v-98.3h98.6v98.3Zm66.6,99.7h32.6v32.6h-32.6v-32.6Zm-33.3-396.3h65.9v32.9h-65.9v-32.9Zm-33-33h32.9v32.9h-32.9v-32.9Zm32.9,66v32.9h-32.6v-32.9h32.6Zm-.3,395.6h-32.4v-32.4h32.4v32.4Zm.3-66h-32.6v-32.6h32.6v32.6Zm-32.7-230.6v-32.9h32.8v-33.1h33.1v66h32.8v32.8h-32.7v32.7h-33v-65.5h-32.9Z" style="stroke-width:0px;"/><path d="m198.3,494.8h32.2v32.9h-65.6v-98.6h-32.6v-33.1h32.6v-131.9H0v99c11,0,22,0,32.9,0v32.8c-11,0-22,0-32.9,0v66h33.1v32.9c10.9,0,21.9.1,32.8.2v33.1h33.3v98.9h32.7c0,10.9,0,21.9.2,32.8,21.9,0,43.9,0,65.8,0v-33.1h33.2v-32.7c11,0,21.9-.1,32.8-.2v-33.2h32.8v-32.9h-32.8v-65.8h-65.6v32.7Zm-66.7.2h-65.6v-32.6h65.6v32.6Zm0-165.1h-32.4v98.8H33.1v-32.6h32.6v-33.1h-32.6v-65.6h98.6v32.5Zm33,297.1h-32.6v-32.6h32.6v32.6Zm66.3-33h-32.6v-32.6h32.6v32.6Z" style="stroke-width:0px;"/><path d="m726,0v231h231V0h-231Zm197.7,197.6h-164.4V33.2h164.4v164.4Z" style="stroke-width:0px;"/><path d="m0,957h231v-231H0v231Zm33.3-197.6h164.4v164.4H33.3v-164.4Z" style="stroke-width:0px;"/><path d="m231,0H0v231h231V0Zm-33.4,197.7H33.2V33.3h164.4v164.4Z" style="stroke-width:0px;"/><path d="m0,693h33.2v-99.1h32.5v-33h-32.8v-65.8c-11,0-22,0-32.9,0v198Z" style="stroke-width:0px;"/><rect x="32.9" y="494.9" width=".1" height=".2" style="stroke-width:0px;"/><rect x="924.3" y="429" width="32.7" height="33" style="stroke-width:0px;"/><rect x="924.3" y="561" width="32.7" height="33" style="stroke-width:0px;"/><path d="m924.1,330h32.9v-33c-11,0-22,0-32.9,0v32.9Z" style="stroke-width:0px;"/><path d="m561,0h-33c0,11,0,22,0,32.9h32.9c0-11,0-22,0-32.9Z" style="stroke-width:0px;"/><rect x="659.9" y="824.9" width=".1" height=".1" style="stroke-width:0px;"/><path d="m429.1,593.9h-.2v.2h.2v-.2Z" style="stroke-width:0px;"/><polygon points="462.2 560.9 494.7 560.9 494.7 527.9 428.8 527.9 428.8 495.3 396.3 495.3 396.3 561.2 429.1 561.2 429.1 593.9 462.2 593.9 462.2 560.9" style="stroke-width:0px;"/><rect x="264.3" y="660.3" width="32.6" height="98.6" style="stroke-width:0px;"/><rect x="296.9" y="758.9" width=".1" height=".1" style="stroke-width:0px;"/><rect x="66.3" y="660" width="65.6" height="32.6" style="stroke-width:0px;"/><rect x="131.9" y="659.9" width=".1" height=".1" style="stroke-width:0px;"/><path d="m297.1,494.9h32.8c0-11,0-21.9,0-32.8h-32.9v32.8Z" style="stroke-width:0px;"/><rect x="329.9" y="494.9" width=".1" height=".1" style="stroke-width:0px;"/><rect x="330" y="495.1" width="32.6" height="32.6" style="stroke-width:0px;"/><rect x="627.4" y="495.3" width="32.6" height="32.6" style="stroke-width:0px;"/><rect x="659.9" y="527.9" width=".1" height=".1" style="stroke-width:0px;"/><rect x="330.1" y="429.1" width="32.9" height="32.9" style="stroke-width:0px;"/><rect x="263.9" y="593.9" width=".1" height=".1" style="stroke-width:0px;"/><rect x="264" y="594.1" width="32.6" height="32.6" style="stroke-width:0px;"/><rect x="197.9" y="659.9" width=".1" height=".1" style="stroke-width:0px;"/><rect x="198" y="660.1" width="32.6" height="32.6" style="stroke-width:0px;"/><rect x="825.1" y="429.1" width=".2" height=".1" style="stroke-width:0px;"/><path d="m890.9,396.1h-33.1v-32.8h-32.5v65.8c21.8,0,43.6,0,65.6,0v-33Z" style="stroke-width:0px;"/><path d="m891.1,395.9h-.2v.2h.2v-.2Z" style="stroke-width:0px;"/><rect x="891.1" y="363.4" width="32.6" height="32.6" style="stroke-width:0px;"/><rect x="758.9" y="362.9" width=".1" height=".1" style="stroke-width:0px;"/><rect x="759" y="363.1" width="32.6" height="32.6" style="stroke-width:0px;"/><rect x="891.4" y="264.3" width="32.6" height="32.6" style="stroke-width:0px;"/><rect x="923.9" y="296.9" width=".1" height=".1" style="stroke-width:0px;"/><path d="m825.1,296.9h-.2v.2h.2v-.2Z" style="stroke-width:0px;"/><rect x="825.1" y="264.4" width="32.6" height="32.6" style="stroke-width:0px;"/><rect x="330.1" y="132.1" width="32.9" height="98.6" style="stroke-width:0px;"/><rect x="264.3" y="165.4" width="32.4" height="65.4" style="stroke-width:0px;"/><rect x="198.4" y="330.3" width="32.6" height="32.6" style="stroke-width:0px;"/><rect x="230.9" y="362.9" width=".1" height=".1" style="stroke-width:0px;"/><rect x="396.1" y="132.1" width="32.9" height="32.9" style="stroke-width:0px;"/><rect x="263.9" y="461.9" width=".2" height=".1" style="stroke-width:0px;"/><rect x="164.9" y="428.9" width=".1" height=".1" style="stroke-width:0px;"/><rect x="164.9" y="395.9" width=".2" height=".1" style="stroke-width:0px;"/><rect x="560.9" y="791.9" width=".1" height=".1" style="stroke-width:0px;"/><rect x="395.9" y="131.9" width=".1" height=".2" style="stroke-width:0px;"/><rect x="494.9" y="164.9" width=".1" height=".1" style="stroke-width:0px;"/><rect x="428.9" y="131.9" width=".1" height=".1" style="stroke-width:0px;"/><rect x="428.9" y="164.9" width=".1" height=".1" style="stroke-width:0px;"/><rect x="461.9" y="164.9" width=".1" height=".1" style="stroke-width:0px;"/><rect x="329.9" y="131.9" width=".1" height=".2" style="stroke-width:0px;"/><rect x="362.9" y="131.9" width=".1" height=".2" style="stroke-width:0px;"/><rect x="527.9" y="32.9" width=".1" height=".2" style="stroke-width:0px;"/><rect x="560.9" y="32.9" width=".1" height=".2" style="stroke-width:0px;"/><rect x="626.9" y="65.9" width=".2" height=".1" style="stroke-width:0px;"/><rect x="726.4" y="726.3" width="32.4" height="32.4" style="stroke-width:0px;"/><rect x="296.9" y="461.9" width=".1" height=".2" style="stroke-width:0px;"/><rect x="329.9" y="461.9" width=".2" height=".1" style="stroke-width:0px;"/><rect x="329.9" y="428.9" width=".1" height=".1" style="stroke-width:0px;"/><rect x="362.9" y="428.9" width=".1" height=".2" style="stroke-width:0px;"/><rect x="659.9" y="164.9" width=".2" height=".1" style="stroke-width:0px;"/><rect x="428.9" y="197.9" width=".1" height=".2" style="stroke-width:0px;"/><rect x="792.3" y="66.2" width="98.3" height="98.4" style="stroke-width:0px;"/><rect x="66.3" y="792.4" width="98.4" height="98.4" style="stroke-width:0px;"/><rect x="66.4" y="66.4" width="98.4" height="98.4" style="stroke-width:0px;"/><rect x="593.9" y="197.9" width=".1" height=".1" style="stroke-width:0px;"/><rect x="594" y="198.1" width="32.6" height="32.6" style="stroke-width:0px;"/></g>
</svg>