<?xml version="1.0" encoding="UTF-8"?><svg id="uuid-71a377d3-b5c7-4000-aace-2000e9b79561" xmlns="http://www.w3.org/2000/svg" viewBox="0 0 288 365.4"><path d="m192.6,60.3c1.45,0,2.9.36,4.18,1.03.81.43,1.54.97,2.18,1.6l54,54c1.7,1.71,2.64,3.97,2.64,6.37v124.2c0,1.45-.36,2.9-1.04,4.19-.41.8-.95,1.53-1.6,2.17l-54,54c-1.69,1.7-3.96,2.64-6.36,2.64h-97.2c-1.45,0-2.9-.36-4.18-1.03-.8-.42-1.54-.96-2.19-1.61l-54-54c-1.7-1.7-2.63-3.96-2.63-6.36v-124.2c0-1.45.35-2.89,1.03-4.18.43-.81.96-1.54,1.6-2.18l54-54.01c1.71-1.7,3.97-2.63,6.37-2.63h97.2m-93.47,232.2h89.74l48.73-48.73v-116.74l-48.73-48.73h-89.74l-48.73,48.73v116.74l48.73,48.73M192.6,56.8h-97.2c-3.33,0-6.47,1.3-8.84,3.65l-54.01,54.02c-.87.87-1.62,1.89-2.22,3.01-.94,1.79-1.44,3.8-1.44,5.82v124.2c0,3.34,1.3,6.48,3.66,8.84l54,54c.89.89,1.91,1.64,3.04,2.23,1.79.94,3.8,1.43,5.81,1.43h97.2c3.35,0,6.49-1.3,8.84-3.67l53.99-53.99c.9-.89,1.66-1.92,2.24-3.05.93-1.76,1.43-3.77,1.43-5.79v-124.2c0-3.33-1.3-6.46-3.66-8.84l-54.01-54.01c-.91-.89-1.92-1.63-3.01-2.22-1.8-.94-3.81-1.44-5.82-1.44h0Zm-92.02,25h86.84l46.68,46.68v113.84l-46.68,46.68h-86.84l-46.68-46.68v-113.84l46.68-46.68h0Z" style="stroke-width:0px;"/></svg>