<?xml version="1.0" encoding="UTF-8"?><svg id="uuid-dd1aa92b-1acf-4732-a503-067c8d7ee8af" xmlns="http://www.w3.org/2000/svg" viewBox="0 0 288 432"><path d="m108.9,45.9c4.96,0,9,4.04,9,9v82.8h126c4.96,0,9,4.04,9,9s-4.04,9-9,9h-126v154.67l48.73,48.73h77.27c4.96,0,9,4.04,9,9s-4.04,9-9,9h-81c-2.37,0-4.69-.96-6.37-2.63l-54-54c-.64-.65-1.18-1.39-1.6-2.2-.68-1.29-1.03-2.73-1.03-4.17v-158.4h-55.8c-4.96,0-9-4.04-9-9s4.04-9,9-9h55.8V54.9c0-4.96,4.04-9,9-9m0-3.5c-6.89,0-12.5,5.61-12.5,12.5v79.3h-52.3c-6.89,0-12.5,5.61-12.5,12.5s5.61,12.5,12.5,12.5h52.3v154.9c0,2.02.5,4.02,1.43,5.8.57,1.1,1.31,2.12,2.2,3.02l54.02,54.02c2.34,2.33,5.56,3.66,8.84,3.66h81c6.89,0,12.5-5.61,12.5-12.5s-5.61-12.5-12.5-12.5h-75.82l-46.68-46.68v-149.72h122.5c6.89,0,12.5-5.61,12.5-12.5s-5.61-12.5-12.5-12.5h-122.5V54.9c0-6.89-5.61-12.5-12.5-12.5h0Z" style="stroke-width:0px;"/></svg>