<?xml version="1.0" encoding="UTF-8"?><svg id="uuid-c4d25dab-ae6d-4d98-a6ce-1613224aaeaf" xmlns="http://www.w3.org/2000/svg" viewBox="0 0 288 365.4"><path d="m241.2,59.81c4.96,0,9,4.04,9,9v140.4c0,2.41-.94,4.67-2.63,6.37l-97.21,97.2c-1.69,1.7-3.96,2.63-6.36,2.63s-4.67-.93-6.36-2.63l-97.2-97.2c-1.71-1.71-2.64-3.97-2.64-6.37V68.81c0-4.96,4.04-9,9-9s9,4.04,9,9v136.68l88.2,88.2,88.2-88.2V68.81c0-4.96,4.04-9,9-9m0-3.5c-6.89,0-12.5,5.61-12.5,12.5v135.23l-84.7,84.7-84.7-84.7V68.81c0-6.89-5.61-12.5-12.5-12.5s-12.5,5.61-12.5,12.5v140.4c0,3.34,1.3,6.48,3.67,8.84l97.2,97.2c2.34,2.35,5.48,3.66,8.83,3.66s6.49-1.3,8.84-3.66l97.2-97.19c2.36-2.37,3.66-5.51,3.66-8.84V68.81c0-6.89-5.61-12.5-12.5-12.5h0Z" style="stroke-width:0px;"/></svg>