<?xml version="1.0" encoding="UTF-8"?><svg id="b" xmlns="http://www.w3.org/2000/svg" viewBox="0 0 80 80"><g id="c"><path d="m29.79,60.16c3.38.45,6.8.68,10.21.67,22.43,0,40-9.15,40-20.83s-17.57-20.83-40-20.83c-5.3-.02-10.59.52-15.78,1.62,3.2-11.1,9.07-18.57,15.78-18.57,3.59,0,7.1,2.23,10.1,6.36l-2,1.44c-.5.36-.61,1.05-.25,1.55.09.12.2.22.32.3l6.75,4.13c.13.08.31.03.38-.1.03-.04.04-.1.04-.15l-.5-9c-.03-.46-.43-.81-.9-.78-.15.01-.3.06-.42.15l-1.62,1.17c-3.44-4.73-7.57-7.29-11.9-7.29-8,0-14.88,8.58-18.27,21.4C8.73,24.8,0,31.77,0,40c.1,3.54,1.6,6.9,4.16,9.35l-1.33.88c-.51.34-.65,1.03-.31,1.54.15.23.38.39.65.46l10,2.54c.15.04.3-.06.34-.21.02-.07,0-.14-.03-.2l-4.26-7.29c-.23-.4-.74-.55-1.14-.32-.03.01-.05.03-.08.05l-2,1.31c-2.3-2.09-3.66-5.01-3.78-8.11,0-6.88,7.62-12.89,18.91-16.11-1.15,5.29-1.71,10.69-1.69,16.11,0,22.43,9,40,20.56,40,6.33,0,12.2-5.46,16.09-15,.23-.58-.05-1.23-.63-1.46-.58-.23-1.23.05-1.46.63-3.53,8.65-8.64,13.61-14,13.61-10.11,0-18.33-17-18.33-37.78-.02-5.64.62-11.27,1.91-16.76,5.38-1.25,10.89-1.87,16.42-1.85,20.83,0,37.78,8.35,37.78,18.61s-16.95,18.61-37.78,18.61c-3.31.02-6.62-.19-9.91-.61-.61-.08-1.17.34-1.25.95s.34,1.17.95,1.25h0v-.04Z" style="stroke-width:0px;"/></g></svg>