<?xml version="1.0" encoding="UTF-8"?><svg id="b" xmlns="http://www.w3.org/2000/svg" viewBox="0 0 90 90"><g id="c"><path d="m70.7,28c-2.2-.7-4.5-1.3-6.9-1.8-.5-2.4-1.1-4.8-1.8-6.9C58.2,7,52,0,45,0s-13.2,7-17,19.3c-.8,2.5-1.5,5.2-2,8.1-.5,2.6-.9,5.3-1.1,8.1-.3,3.1-.4,6.3-.4,9.5s.1,6.4.4,9.5c.2,1.8.4,3.6.7,5.3-1.8-.4-3.5-.9-5.1-1.4-10.5-3.2-16.7-8.2-16.7-13.4s6.2-10.2,16.6-13.4c.8-.2,1.4-.9,1.4-1.8,0-1.2-1.3-2.2-2.4-1.8C7,31.8,0,38,0,45s7,13.2,19.3,17c2.2.7,4.5,1.3,6.9,1.8.5,2.4,1.1,4.8,1.8,6.9,3.8,12.3,10,19.3,17,19.3s13.2-7,17-19.3c.3-1-.2-2-1.2-2.3s-2,.2-2.3,1.2c-3.3,10.4-8.3,16.6-13.5,16.6s-10.2-6.2-13.5-16.6c-.5-1.6-.9-3.3-1.3-5.1,1.7.3,3.5.5,5.3.7,3.1.3,6.3.5,9.5.5,4.8,0,9.5-.3,14-1,2.2-.3,4.5-.7,6.4-1.2,15.4-3.6,24.6-10.5,24.6-18.5,0-7-7-13.2-19.3-17Zm-6.1,31.8c-1.9.4-4,.8-6.1,1.1-4.4.6-8.9,1-13.6,1-3.1,0-6.2-.1-9.1-.4-2.2-.2-4.4-.5-6.4-.9-.4-2.1-.7-4.3-.9-6.5-.3-3-.4-6-.4-9.1s.1-6.1.4-9.1c.3-2.7.6-5.3,1.1-7.7.5-2.8,1.2-5.4,1.9-7.7,3.3-10.5,8.3-16.7,13.5-16.7s10.2,6.2,13.5,16.6c.5,1.6.9,3.3,1.3,5.1-1.7-.3-3.5-.5-5.3-.7h0c-6.1-.6-12.8-.6-18.9,0-1,.1-1.8,1-1.7,2s1,1.8,2,1.7c5.9-.6,12.3-.6,18.2,0h.1c2.2.2,4.3.5,6.4.9.4,2.1.7,4.3.9,6.5.3,3,.4,6,.4,9.1s-.1,6.1-.4,9.1c-.1,1,.7,1.9,1.7,2s1.9-.7,2-1.7c.3-3.1.4-6.3.4-9.5s-.1-6.4-.4-9.5c-.2-1.8-.4-3.6-.7-5.3,1.8.4,3.5.8,5.1,1.3,10.4,3.4,16.6,8.4,16.6,13.6,0,6-8.4,11.8-21.6,14.8Z" style="stroke-width:0px;"/></g></svg>