<?xml version="1.0" encoding="UTF-8"?><svg id="b" xmlns="http://www.w3.org/2000/svg" viewBox="0 0 82 82"><g id="c"><path d="m77.78,41c0-9.55-16.84-17.61-36.78-17.61-5.24.01-10.48.55-15.59,1.69-1.18,5.21-1.76,10.57-1.74,15.92,0,19.94,7.94,36.78,17.33,36.78,4.94,0,9.71-4.73,13.07-12.99.21-.52.61-.93,1.13-1.15.52-.23,1.1-.24,1.63-.03.53.21.94.61,1.17,1.13.22.53.23,1.1.02,1.63-4.05,9.94-10.26,15.63-17.02,15.63-12.09,0-21.56-18.01-21.56-41-.02-4.91.44-9.84,1.37-14.67-10.28,3.28-16.59,8.82-16.59,14.67.1,2.52,1.15,4.98,2.9,6.83l1.46-.95c.43-.24.93-.3,1.4-.17.47.13.87.44,1.11.87l4.25,7.28c.17.29.22.63.14.94-.08.34-.29.62-.58.79-.29.18-.64.23-.97.15l-10.01-2.54c-.5-.13-.94-.44-1.23-.88-.65-.97-.38-2.28.59-2.92l.33-.22c-2.24-2.53-3.51-5.74-3.61-9.15,0-8.36,8.38-15.77,21.91-19.45C25.58,8.25,32.86,0,41,0c4.4,0,8.57,2.38,12.11,6.91l.82-.6c.29-.2.61-.31.94-.34.5-.04.97.13,1.34.45s.59.77.63,1.26l.5,9.01c.01.27-.05.5-.17.71-.35.61-1.14.82-1.75.47l-6.77-4.15c-.25-.15-.45-.34-.62-.57-.68-.94-.46-2.26.49-2.94l1.16-.84c-2.67-3.37-5.66-5.15-8.68-5.15-5.68,0-11.09,6.19-14.34,16.26,4.73-.89,9.55-1.31,14.34-1.31,22.99,0,41,9.59,41,21.83s-18.01,21.83-41,21.83h-.11c-3.03,0-6.09-.18-9.1-.54v.06l-1.14-.16c-.55-.08-1.05-.36-1.39-.81-.34-.45-.49-1.01-.41-1.56.07-.56.36-1.06.81-1.4.45-.34,1.01-.48,1.56-.41,3.22.41,6.51.64,9.77.6,19.95,0,36.79-8.06,36.79-17.61Z" style="stroke-width:0px;"/></g></svg>