<?xml version="1.0" encoding="UTF-8"?><svg id="b" xmlns="http://www.w3.org/2000/svg" viewBox="0 0 27.99 27.99"><g id="c"><path d="m21.87,8.45c-.6-.18-1.22-.34-1.85-.47-.15-.68-.3-1.3-.48-1.84-1.21-3.9-3.23-6.13-5.54-6.13s-4.34,2.23-5.54,6.12c-.24.74-.44,1.56-.62,2.5-.15.77-.27,1.58-.35,2.47-.09.9-.13,1.87-.13,2.9s.04,2,.13,2.9c.03.34.07.66.12.99-.33-.08-.64-.18-.94-.27-2.83-.89-4.66-2.31-4.66-3.61,0-.66.45-1.25.96-1.71l-.14.32c-.36.83.46,1.68,1.31,1.35.25-.1.45-.29.56-.54l1.33-3.08c.22-.52-.01-1.11-.53-1.34l-3.08-1.33c-.25-.11-.53-.11-.78-.01h0c-.84.33-.86,1.52-.03,1.88l1.08.47c-2.2,1.42-2.69,2.95-2.69,3.99,0,2.31,2.23,4.33,6.12,5.54.57.18,1.18.33,1.86.48.14.67.3,1.3.48,1.84,1.21,3.9,3.23,6.13,5.54,6.13,1.99,0,3.77-1.65,5-4.65.21-.51-.03-1.1-.54-1.31-.51-.21-1.09.03-1.3.54-.88,2.13-2.06,3.41-3.15,3.41-1.32,0-2.74-1.85-3.64-4.74-.09-.27-.17-.56-.24-.86.32.04.63.08.97.12.91.09,1.88.13,2.91.13,1.49,0,2.94-.1,4.31-.3.65-.11,1.31-.22,1.96-.37,4.84-1.1,7.73-3.33,7.73-5.97,0-2.31-2.23-4.33-6.12-5.54Zm-2.05,9.57c-.6.15-1.19.24-1.8.34-2.16.31-4.68.36-6.74.15-.57-.06-1.1-.13-1.6-.21-.08-.51-.16-1.04-.21-1.61-.08-.83-.12-1.74-.12-2.7s.04-1.87.12-2.7c.08-.83.19-1.57.33-2.29.16-.87.35-1.61.56-2.28.89-2.87,2.32-4.72,3.63-4.72s2.74,1.85,3.64,4.74c.09.27.17.56.24.86-.32-.04-.64-.08-.98-.12-1.29-.13-2.81-.17-4.25-.1-.55.03-.98.49-.95,1.05.03.55.47.99,1.05.95,1.35-.06,2.76-.02,3.97.1.57.06,1.1.13,1.6.21.08.51.16,1.03.21,1.61.05.47.07.97.09,1.49l-.54-.59c-.61-.67-1.73-.27-1.77.64-.01.27.08.53.26.73l2.26,2.48c.38.42,1.02.45,1.44.07l2.48-2.26c.2-.18.32-.44.33-.7.04-.91-1.03-1.41-1.7-.8l-.77.7c-.02-.66-.04-1.32-.1-1.95-.03-.34-.07-.66-.12-.98.3.08.6.16.88.24,2.86.89,4.71,2.32,4.71,3.63,0,1.57-2.48,3.18-6.17,4.02Z" style="stroke-width:0px; fill: currentcolor;"/></g></svg>