<?xml version="1.0" encoding="UTF-8"?><svg id="a" xmlns="http://www.w3.org/2000/svg" width="4in" height="5.07in" viewBox="0 0 288 365.4"><path d="m235.8,61.2c2.98,0,5.4,2.42,5.4,5.4v37.8c0,2.98-2.42,5.4-5.4,5.4s-5.4-2.42-5.4-5.4v-32.4H57.6v99.9h178.2c2.98,0,5.4,2.42,5.4,5.4v121.5c0,2.98-2.42,5.4-5.4,5.4H52.2c-2.98,0-5.4-2.42-5.4-5.4v-37.8c0-2.98,2.42-5.4,5.4-5.4s5.4,2.42,5.4,5.4v32.4h172.8v-110.7H52.2c-2.98,0-5.4-2.42-5.4-5.4v-110.7c0-2.98,2.42-5.4,5.4-5.4h183.6m0-2H52.2c-4.08,0-7.4,3.32-7.4,7.4v110.7c0,4.08,3.32,7.4,7.4,7.4h176.2v106.7H59.6v-30.4c0-4.08-3.32-7.4-7.4-7.4s-7.4,3.32-7.4,7.4v37.8c0,4.08,3.32,7.4,7.4,7.4h183.6c4.08,0,7.4-3.32,7.4-7.4v-121.5c0-4.08-3.32-7.4-7.4-7.4H59.6v-95.9h168.8v30.4c0,4.08,3.32,7.4,7.4,7.4s7.4-3.32,7.4-7.4v-37.8c0-4.08-3.32-7.4-7.4-7.4h0Z" style="stroke-width:0px;"/></svg>