<?xml version="1.0" encoding="UTF-8"?><svg id="a" xmlns="http://www.w3.org/2000/svg" width="4in" height="5.07in" viewBox="0 0 288 365.4"><path d="m204.86,49.59c.72,0,1.42.14,2.07.41s1.25.67,1.75,1.17l41.59,41.59c1.51,1.51,2.02,4.34,1.02,6.23-1.05,1.99-2.95,2.98-4.85,2.98-1.38,0-2.76-.53-3.81-1.58l-38.42-38.42c-.51-.5-1.11-.9-1.75-1.17-.65-.27-1.35-.41-2.07-.41h-109.85c-.72,0-1.42.14-2.07.41-.65.27-1.25.67-1.75,1.17l-35.25,35.25c-.51.51-.91,1.11-1.18,1.76-.27.65-.41,1.35-.41,2.06v29.67c0,.71.14,1.41.41,2.06.27.65.67,1.25,1.18,1.76l35.25,35.25c.5.5,1.1.9,1.75,1.17.65.27,1.35.41,2.07.41h114.32c.72,0,1.42.14,2.07.41s1.25.67,1.75,1.17l41.58,41.58c.51.51.9,1.1,1.17,1.75.27.65.41,1.35.41,2.07v50.49c0,.72-.14,1.42-.41,2.07-.27.64-.66,1.24-1.17,1.75l-41.58,41.58c-.5.5-1.1.9-1.75,1.17-.65.27-1.35.41-2.07.41h-121.77c-.72,0-1.41-.14-2.06-.41h-.01c-.64-.27-1.24-.67-1.74-1.17l-41.6-41.59c-1.51-1.51-2.01-4.34-1.01-6.23,1.05-1.99,2.95-2.98,4.84-2.98,1.38,0,2.76.53,3.82,1.58l38.42,38.42c.5.5,1.1.9,1.75,1.17.65.27,1.35.41,2.07.41h112.82c.72,0,1.42-.14,2.07-.41.64-.27,1.24-.67,1.75-1.17l35.25-35.25c.51-.51.9-1.11,1.17-1.76.27-.65.41-1.35.41-2.06v-41.55c0-.71-.14-1.41-.41-2.06-.27-.65-.66-1.25-1.17-1.76l-35.25-35.25c-.51-.5-1.11-.9-1.75-1.17-.65-.27-1.35-.41-2.07-.41h-114.33c-.72,0-1.41-.14-2.07-.41-.64-.27-1.24-.67-1.74-1.17l-41.58-41.58c-.51-.51-.91-1.11-1.18-1.75-.27-.65-.41-1.35-.41-2.07v-38.61c0-.72.14-1.42.41-2.07.27-.65.67-1.24,1.18-1.75l41.58-41.58c.5-.5,1.1-.9,1.74-1.17h.01c.65-.27,1.34-.41,2.06-.41h118.8m0-2h-118.8c-.83,0-1.65.14-2.43.41h-.04l-.38.16c-.88.37-1.7.92-2.38,1.6l-41.58,41.58c-.7.7-1.24,1.51-1.61,2.4-.37.9-.56,1.85-.56,2.84v38.61c0,.98.19,1.94.56,2.84.38.9.92,1.71,1.61,2.4l41.58,41.58c.67.67,1.5,1.23,2.38,1.6.93.38,1.88.57,2.85.57h114.33c.45,0,.89.09,1.3.26.4.17.79.43,1.12.75l35.24,35.24c.31.31.56.69.74,1.11.17.41.26.85.26,1.29v41.55c0,.45-.09.88-.26,1.29-.18.43-.43.8-.74,1.11l-35.25,35.25c-.31.31-.7.57-1.11.74-.4.17-.84.25-1.29.25h-112.82c-.45,0-.89-.09-1.3-.26-.41-.17-.79-.42-1.1-.74l-38.42-38.42c-1.4-1.4-3.25-2.16-5.23-2.16-2.8,0-5.28,1.51-6.61,4.05-1.4,2.64-.8,6.41,1.36,8.58l41.6,41.59c.67.67,1.5,1.23,2.38,1.6l.37.16h.05c.78.27,1.59.41,2.43.41h121.77c.98,0,1.94-.19,2.84-.56.89-.37,1.72-.92,2.4-1.6l41.58-41.58c.68-.68,1.22-1.48,1.6-2.39.38-.91.57-1.86.57-2.85v-50.49c0-.98-.19-1.94-.56-2.84-.37-.9-.91-1.71-1.6-2.4l-41.58-41.58c-.68-.68-1.51-1.23-2.4-1.6-.9-.37-1.85-.56-2.84-.56h-114.32c-.45,0-.89-.09-1.3-.26-.41-.17-.79-.42-1.1-.74l-35.25-35.25c-.32-.32-.57-.7-.75-1.11-.17-.41-.26-.85-.26-1.29v-29.67c0-.45.09-.88.26-1.29.17-.42.42-.79.75-1.11l35.25-35.25c.31-.31.69-.57,1.1-.74.41-.17.85-.26,1.3-.26h109.85c.45,0,.89.09,1.3.26.4.17.79.43,1.12.75l38.41,38.41c1.4,1.4,3.25,2.16,5.23,2.16,2.8,0,5.27-1.51,6.61-4.04,1.4-2.64.8-6.41-1.37-8.58l-41.59-41.59c-.68-.68-1.51-1.23-2.4-1.6-.9-.37-1.85-.56-2.84-.56h0Z" style="stroke-width:0px;"/></svg>