<?xml version="1.0" encoding="UTF-8"?><svg id="a" xmlns="http://www.w3.org/2000/svg" width="4in" height="5.07in" viewBox="0 0 288 365.4"><path d="m241.2,63.41c2.98,0,5.4,2.42,5.4,5.4v140.4c0,1.43-.57,2.8-1.58,3.82l-97.2,97.2c-1.01,1.01-2.39,1.58-3.82,1.58s-2.8-.57-3.82-1.58l-97.2-97.2c-1.01-1.01-1.58-2.39-1.58-3.82V68.81c0-2.98,2.42-5.4,5.4-5.4s5.4,2.42,5.4,5.4v138.17l91.8,91.8,91.8-91.8V68.81c0-2.98,2.42-5.4,5.4-5.4m0-2c-4.08,0-7.4,3.32-7.4,7.4v137.34l-89.8,89.8-89.8-89.8V68.81c0-4.08-3.32-7.4-7.4-7.4s-7.4,3.32-7.4,7.4v140.4c0,1.97.77,3.83,2.16,5.23l97.2,97.2c1.4,1.4,3.26,2.17,5.23,2.17s3.84-.77,5.23-2.17l97.2-97.2c1.4-1.4,2.17-3.26,2.17-5.23V68.81c0-4.08-3.32-7.4-7.4-7.4h0Z" style="stroke-width:0px;"/></svg>